<svg width="20" height="14" viewBox="0 0 20 14" fill="none" xmlns="http://www.w3.org/2000/svg">
<path fill-rule="evenodd" clip-rule="evenodd" d="M8.10033 0.399663C8.39322 0.692556 8.39322 1.16743 8.10033 1.46032L3.31066 6.24999H18.5C18.9142 6.24999 19.25 6.58578 19.25 6.99999C19.25 7.41421 18.9142 7.74999 18.5 7.74999H3.31066L8.10033 12.5397C8.39322 12.8326 8.39322 13.3074 8.10033 13.6003C7.80744 13.8932 7.33256 13.8932 7.03967 13.6003L0.96967 7.53032C0.829018 7.38967 0.75 7.19891 0.75 6.99999C0.75 6.80108 0.829018 6.61031 0.96967 6.46966L7.03967 0.399663C7.33256 0.106769 7.80744 0.106769 8.10033 0.399663Z" fill="#3B3230"/>
</svg>
