<svg width="14" height="16" viewBox="0 0 14 16" fill="none" xmlns="http://www.w3.org/2000/svg">
<path fill-rule="evenodd" clip-rule="evenodd" d="M9.4999 4.34007C9.4999 2.87784 8.24358 1.70664 6.75485 1.85107L6.75303 1.85124C5.53873 1.96458 4.4999 3.19504 4.4999 4.46674V5.11341C4.4999 5.38955 4.27604 5.61341 3.9999 5.61341C3.72376 5.61341 3.4999 5.38955 3.4999 5.11341V4.46674C3.4999 2.73874 4.87394 1.02282 6.65919 0.855656C8.7434 0.653984 10.4999 2.29594 10.4999 4.34007V5.26007C10.4999 5.53622 10.276 5.76007 9.9999 5.76007C9.72376 5.76007 9.4999 5.53622 9.4999 5.26007V4.34007Z" fill="white"/>
<path fill-rule="evenodd" clip-rule="evenodd" d="M1.24893 5.87823C1.8392 5.17646 2.85121 4.83341 4.33323 4.83341H9.66657C11.1486 4.83341 12.1606 5.17646 12.7509 5.87823C13.3364 6.57434 13.3912 7.48922 13.2969 8.34173L13.2961 8.34877L12.7966 12.3445C12.7229 13.0286 12.5503 13.778 11.9396 14.3359C11.3322 14.8908 10.3911 15.1667 8.9999 15.1667H4.9999C3.60867 15.1667 2.66759 14.8908 2.06016 14.3359C1.44953 13.778 1.27693 13.0286 1.20322 12.3445L0.702884 8.34174C0.608549 7.48922 0.663412 6.57434 1.24893 5.87823ZM1.69649 8.2283L2.19713 12.2335C2.2637 12.8547 2.4016 13.2933 2.73464 13.5976C3.07221 13.906 3.71113 14.1667 4.9999 14.1667H8.9999C10.2887 14.1667 10.9276 13.906 11.2652 13.5976C11.5982 13.2933 11.7362 12.8548 11.8027 12.2335L11.8037 12.2247L12.3033 8.22831C12.3883 7.45593 12.2996 6.89526 11.9856 6.52192C11.6759 6.15369 11.0312 5.83341 9.66657 5.83341H4.33323C2.96859 5.83341 2.32393 6.15369 2.01421 6.52192C1.70019 6.89525 1.61147 7.45593 1.69649 8.2283Z" fill="white"/>
<path fill-rule="evenodd" clip-rule="evenodd" d="M8.33022 8.00007C8.33022 7.44779 8.77794 7.00007 9.33022 7.00007H9.33621C9.8885 7.00007 10.3362 7.44779 10.3362 8.00007C10.3362 8.55236 9.8885 9.00007 9.33621 9.00007H9.33022C8.77794 9.00007 8.33022 8.55236 8.33022 8.00007Z" fill="white"/>
<path fill-rule="evenodd" clip-rule="evenodd" d="M3.66291 8.00007C3.66291 7.44779 4.11062 7.00007 4.66291 7.00007H4.66889C5.22118 7.00007 5.66889 7.44779 5.66889 8.00007C5.66889 8.55236 5.22118 9.00007 4.66889 9.00007H4.66291C4.11062 9.00007 3.66291 8.55236 3.66291 8.00007Z" fill="white"/>
</svg>
