<svg width="16" height="16" viewBox="0 0 16 16" fill="none" xmlns="http://www.w3.org/2000/svg">
<path fill-rule="evenodd" clip-rule="evenodd" d="M1.47982 1.47982C1.93999 1.01965 2.58964 0.833374 3.33337 0.833374H4.66671C5.41045 0.833374 6.06009 1.01965 6.52026 1.47982C6.98043 1.93999 7.16671 2.58964 7.16671 3.33337V4.66671C7.16671 5.41045 6.98043 6.06009 6.52026 6.52026C6.06009 6.98043 5.41045 7.16671 4.66671 7.16671H3.33337C2.58964 7.16671 1.93999 6.98043 1.47982 6.52026C1.01965 6.06009 0.833374 5.41045 0.833374 4.66671V3.33337C0.833374 2.58964 1.01965 1.93999 1.47982 1.47982ZM2.18693 2.18693C1.98043 2.39342 1.83337 2.74378 1.83337 3.33337V4.66671C1.83337 5.2563 1.98043 5.60666 2.18693 5.81315C2.39342 6.01965 2.74378 6.16671 3.33337 6.16671H4.66671C5.2563 6.16671 5.60666 6.01965 5.81315 5.81315C6.01965 5.60666 6.16671 5.2563 6.16671 4.66671V3.33337C6.16671 2.74378 6.01965 2.39342 5.81315 2.18693C5.60666 1.98043 5.2563 1.83337 4.66671 1.83337H3.33337C2.74378 1.83337 2.39342 1.98043 2.18693 2.18693ZM9.47982 1.47982C9.93999 1.01965 10.5896 0.833374 11.3334 0.833374H12.6667C13.4104 0.833374 14.0601 1.01965 14.5203 1.47982C14.9804 1.93999 15.1667 2.58963 15.1667 3.33337V4.66671C15.1667 5.41045 14.9804 6.06009 14.5203 6.52026C14.0601 6.98043 13.4104 7.16671 12.6667 7.16671H11.3334C10.5896 7.16671 9.93999 6.98043 9.47982 6.52026C9.01965 6.06009 8.83337 5.41045 8.83337 4.66671V3.33337C8.83337 2.58963 9.01965 1.93999 9.47982 1.47982ZM10.1869 2.18693C9.98043 2.39342 9.83337 2.74378 9.83337 3.33337V4.66671C9.83337 5.2563 9.98043 5.60666 10.1869 5.81315C10.3934 6.01965 10.7438 6.16671 11.3334 6.16671H12.6667C13.2563 6.16671 13.6067 6.01965 13.8132 5.81315C14.0196 5.60666 14.1667 5.2563 14.1667 4.66671V3.33337C14.1667 2.74378 14.0196 2.39342 13.8132 2.18693C13.6067 1.98043 13.2563 1.83337 12.6667 1.83337H11.3334C10.7438 1.83337 10.3934 1.98043 10.1869 2.18693ZM1.47982 9.47982C1.93999 9.01965 2.58963 8.83337 3.33337 8.83337H4.66671C5.41045 8.83337 6.06009 9.01965 6.52026 9.47982C6.98043 9.93999 7.16671 10.5896 7.16671 11.3334V12.6667C7.16671 13.4104 6.98043 14.0601 6.52026 14.5203C6.06009 14.9804 5.41045 15.1667 4.66671 15.1667H3.33337C2.58963 15.1667 1.93999 14.9804 1.47982 14.5203C1.01965 14.0601 0.833374 13.4104 0.833374 12.6667V11.3334C0.833374 10.5896 1.01965 9.93999 1.47982 9.47982ZM2.18693 10.1869C1.98043 10.3934 1.83337 10.7438 1.83337 11.3334V12.6667C1.83337 13.2563 1.98043 13.6067 2.18693 13.8132C2.39342 14.0196 2.74378 14.1667 3.33337 14.1667H4.66671C5.2563 14.1667 5.60666 14.0196 5.81315 13.8132C6.01965 13.6067 6.16671 13.2563 6.16671 12.6667V11.3334C6.16671 10.7438 6.01965 10.3934 5.81315 10.1869C5.60666 9.98043 5.2563 9.83337 4.66671 9.83337H3.33337C2.74378 9.83337 2.39342 9.98043 2.18693 10.1869ZM9.47982 9.47982C9.93999 9.01965 10.5896 8.83337 11.3334 8.83337H12.6667C13.4104 8.83337 14.0601 9.01965 14.5203 9.47982C14.9804 9.93999 15.1667 10.5896 15.1667 11.3334V12.6667C15.1667 13.4104 14.9804 14.0601 14.5203 14.5203C14.0601 14.9804 13.4104 15.1667 12.6667 15.1667H11.3334C10.5896 15.1667 9.93999 14.9804 9.47982 14.5203C9.01965 14.0601 8.83337 13.4104 8.83337 12.6667V11.3334C8.83337 10.5896 9.01965 9.93999 9.47982 9.47982ZM10.1869 10.1869C9.98043 10.3934 9.83337 10.7438 9.83337 11.3334V12.6667C9.83337 13.2563 9.98043 13.6067 10.1869 13.8132C10.3934 14.0196 10.7438 14.1667 11.3334 14.1667H12.6667C13.2563 14.1667 13.6067 14.0196 13.8132 13.8132C14.0196 13.6067 14.1667 13.2563 14.1667 12.6667V11.3334C14.1667 10.7438 14.0196 10.3934 13.8132 10.1869C13.6067 9.98043 13.2563 9.83337 12.6667 9.83337H11.3334C10.7438 9.83337 10.3934 9.98043 10.1869 10.1869Z" fill="white"/>
</svg>
