<svg width="16" height="16" viewBox="0 0 16 16" fill="none" xmlns="http://www.w3.org/2000/svg">
<path fill-rule="evenodd" clip-rule="evenodd" d="M0.644174 0.648948C0.838051 0.45231 1.15463 0.450071 1.35126 0.643948L8.12101 7.31861L14.8908 0.643948C15.0874 0.450071 15.404 0.45231 15.5978 0.648948C15.7917 0.845586 15.7895 1.16216 15.5928 1.35604L8.83317 8.02077L15.5931 14.6857C15.7897 14.8796 15.7919 15.1962 15.5981 15.3928C15.4042 15.5894 15.0876 15.5917 14.891 15.3978L8.12101 8.72293L1.35104 15.3978C1.15441 15.5917 0.837832 15.5894 0.643955 15.3928C0.450079 15.1962 0.452318 14.8796 0.648956 14.6857L7.40885 8.02077L0.649175 1.35604C0.452537 1.16216 0.450298 0.845586 0.644174 0.648948Z" fill="#47B200"/>
</svg>
