<svg width="17" height="16" viewBox="0 0 17 16" fill="none" xmlns="http://www.w3.org/2000/svg">
<path d="M10.9283 4.64735C11.0882 4.64787 11.2467 4.61855 11.3945 4.56108C11.5423 4.5036 11.6766 4.41912 11.7895 4.31251C11.9024 4.20591 11.9917 4.07929 12.0523 3.93999C12.1129 3.80068 12.1436 3.65145 12.1426 3.50092C12.1443 3.35115 12.1143 3.20254 12.0544 3.0638C11.9944 2.92506 11.9057 2.79896 11.7933 2.69288C11.6809 2.5868 11.5472 2.50287 11.4 2.446C11.2528 2.38912 11.095 2.36044 10.9359 2.36164C10.7764 2.36117 10.6184 2.39027 10.4709 2.44727C10.3234 2.50427 10.1892 2.58806 10.0761 2.69385C9.96301 2.79964 9.87315 2.92536 9.81166 3.06384C9.75018 3.20232 9.71828 3.35084 9.71778 3.50092C9.71728 3.651 9.7482 3.79971 9.80876 3.93855C9.86932 4.07738 9.95835 4.20363 10.0708 4.31009C10.1832 4.41655 10.3167 4.50112 10.4639 4.55899C10.611 4.61686 10.7688 4.64688 10.9283 4.64735V4.64735Z" fill="#5A5D5A"/>
<path d="M12.7332 6.93298H11.0727C11.0454 6.93298 11.0187 6.92609 10.9952 6.91302C10.9718 6.89995 10.9525 6.88118 10.9395 6.85869L9.73505 4.78119C9.65019 4.62681 9.52789 4.49339 9.37806 4.39175C9.22824 4.29012 9.05509 4.22311 8.87263 4.19616C8.69018 4.16921 8.50354 4.18307 8.32784 4.23662C8.15213 4.29017 7.99229 4.38191 7.86126 4.50441L5.21032 7.01869C4.98761 7.23263 4.8612 7.5192 4.85742 7.81869C4.85742 8.44012 5.33555 8.66154 5.55943 8.78654C6.6409 9.37297 7.40248 9.8019 7.82027 10.0401C7.84248 10.0528 7.86085 10.0707 7.87361 10.092C7.88636 10.1134 7.89309 10.1374 7.89313 10.1619V12.6305C7.89313 12.938 8.14434 13.2019 8.47105 13.2173C8.55308 13.221 8.63506 13.209 8.71202 13.182C8.78899 13.1551 8.85935 13.1137 8.91883 13.0604C8.97832 13.0071 9.02571 12.943 9.05812 12.872C9.09054 12.801 9.1073 12.7245 9.10741 12.6473V9.57583C9.10747 9.48512 9.08458 9.39569 9.04063 9.31496C8.99668 9.23422 8.93295 9.1645 8.85469 9.11154L7.45068 8.16119C7.43305 8.14932 7.41833 8.13404 7.40751 8.11637C7.39668 8.0987 7.39 8.07905 7.38792 8.05875C7.38583 8.03845 7.38839 8.01797 7.39542 7.99867C7.40245 7.97938 7.41379 7.96173 7.42867 7.9469L9.02241 6.34726C9.03876 6.33081 9.059 6.31822 9.08149 6.31053C9.10399 6.30284 9.1281 6.30026 9.15185 6.30301C9.17561 6.30576 9.19833 6.31376 9.21818 6.32636C9.23802 6.33895 9.25442 6.35578 9.26603 6.37548L10.094 7.7819C10.1466 7.87106 10.2237 7.94533 10.3171 7.99702C10.4105 8.0487 10.5169 8.07592 10.6253 8.07583H12.7503C12.8325 8.07592 12.9139 8.06028 12.9896 8.02986C13.0652 7.99944 13.1335 7.95487 13.1902 7.89886C13.247 7.84285 13.2911 7.77657 13.3199 7.70403C13.3486 7.6315 13.3614 7.55423 13.3574 7.4769C13.3415 7.1694 13.0599 6.93298 12.7332 6.93298Z" fill="#5A5D5A"/>
<rect width="4.12689" height="4.12727" rx="1.5" transform="matrix(0.7282 0.685365 -0.7282 0.685365 4.66504 0.799988)" stroke="#5A5D5A"/>
<path d="M13.8125 14.8616C15.2795 14.8616 16.4687 13.7423 16.4687 12.3616C16.4687 10.9809 15.2795 9.8616 13.8125 9.8616C12.3455 9.8616 11.1562 10.9809 11.1562 12.3616C11.1562 13.7423 12.3455 14.8616 13.8125 14.8616Z" stroke="#5A5D5A"/>
<path d="M3.1875 14.8616C4.65451 14.8616 5.84375 13.7423 5.84375 12.3616C5.84375 10.9809 4.65451 9.8616 3.1875 9.8616C1.72049 9.8616 0.53125 10.9809 0.53125 12.3616C0.53125 13.7423 1.72049 14.8616 3.1875 14.8616Z" stroke="#5A5D5A"/>
</svg>
