<svg width="17" height="16" viewBox="0 0 17 16" fill="none" xmlns="http://www.w3.org/2000/svg">
<path d="M10.9288 4.64734L10.9304 4.14735L10.9302 4.14735L10.9288 4.64734ZM12.143 3.50092L11.643 3.49501L11.6431 3.50442L12.143 3.50092ZM10.9363 2.36163L10.9349 2.86166L10.9401 2.86162L10.9363 2.36163ZM11.0724 6.93302L11.0724 6.43302L11.0723 6.43302L11.0724 6.93302ZM10.9392 6.85873L10.5067 7.10951L10.507 7.11003L10.9392 6.85873ZM9.7348 4.78123L9.29652 5.02214L9.30224 5.03201L9.7348 4.78123ZM7.86101 4.50445L7.51955 4.13919L7.51693 4.14167L7.86101 4.50445ZM5.21008 7.01873L4.86599 6.65594L4.86369 6.65815L5.21008 7.01873ZM4.85718 7.81873L4.35718 7.81242V7.81873L4.85718 7.81873ZM5.55919 8.78658L5.31542 9.22318L5.32085 9.22612L5.55919 8.78658ZM7.82003 10.0402L8.0686 9.60632L8.06769 9.6058L7.82003 10.0402ZM7.89289 10.1619L8.39289 10.1619L8.39289 10.1611L7.89289 10.1619ZM8.47081 13.2173L8.44733 13.7167L8.44816 13.7168L8.47081 13.2173ZM9.10717 12.6473L9.60717 12.648V12.6473H9.10717ZM9.10717 9.57587L8.60717 9.57557V9.57587H9.10717ZM8.85445 9.11158L8.57418 9.52565L8.57424 9.52569L8.85445 9.11158ZM7.45043 8.16123L7.7307 7.74717L7.72972 7.7465L7.45043 8.16123ZM7.42842 7.94694L7.78131 8.30117L7.78263 8.29984L7.42842 7.94694ZM9.02217 6.3473L9.37638 6.7002L9.37698 6.69959L9.02217 6.3473ZM9.26579 6.37552L9.69666 6.12185L9.69648 6.12154L9.26579 6.37552ZM10.0938 7.78194L9.6629 8.03561L9.66319 8.0361L10.0938 7.78194ZM10.625 8.07587L10.625 7.57587L10.6246 7.57587L10.625 8.07587ZM12.75 8.07587L12.7506 7.57587H12.75V8.07587ZM13.3572 7.47694L13.8565 7.45138L13.8565 7.45106L13.3572 7.47694ZM2.75174 4.65674L2.40906 5.02084L2.40906 5.02084L2.75174 4.65674ZM2.75174 2.60064L3.09442 2.96474L2.75174 2.60064ZM5.75694 5.42907L6.09963 5.79317L6.09963 5.79317L5.75694 5.42907ZM3.57234 5.42907L3.91503 5.06497L3.91503 5.06497L3.57234 5.42907ZM6.57782 2.60038L6.9205 2.23628L6.9205 2.23628L6.57782 2.60038ZM6.57782 4.65648L6.23514 4.29238L6.23514 4.29238L6.57782 4.65648ZM5.75722 1.82805L5.41453 2.19215L5.41453 2.19215L5.75722 1.82805ZM3.57262 1.82805L3.22993 1.46395L3.57262 1.82805ZM10.9271 5.14734C11.149 5.14807 11.3696 5.10741 11.5762 5.02709L11.2138 4.09505C11.1248 4.12967 11.0283 4.14767 10.9304 4.14735L10.9271 5.14734ZM11.5762 5.02709C11.7828 4.94675 11.9724 4.82792 12.1332 4.67608L11.4467 3.94894C11.3817 4.01031 11.3028 4.06045 11.2138 4.09505L11.5762 5.02709ZM12.1332 4.67608C12.2941 4.52417 12.4232 4.34206 12.5113 4.13944L11.5943 3.74052C11.5613 3.81651 11.5117 3.88764 11.4467 3.94894L12.1332 4.67608ZM12.5113 4.13944C12.5995 3.93673 12.6446 3.71841 12.643 3.49742L11.6431 3.50442C11.6436 3.58448 11.6274 3.66462 11.5943 3.74052L12.5113 4.13944ZM12.643 3.50683C12.6456 3.28618 12.6014 3.06802 12.5138 2.86542L11.5959 3.26217C11.6283 3.33706 11.644 3.41611 11.6431 3.49501L12.643 3.50683ZM12.5138 2.86542C12.4263 2.66292 12.2977 2.48096 12.137 2.32931L11.4505 3.05644C11.5146 3.11695 11.5635 3.18719 11.5959 3.26217L12.5138 2.86542ZM12.137 2.32931C11.9765 2.17773 11.7871 2.05932 11.5807 1.97958L11.2203 2.9124C11.3084 2.94641 11.3864 2.99586 11.4505 3.05644L12.137 2.32931ZM11.5807 1.97958C11.3743 1.89986 11.1541 1.85998 10.9326 1.86165L10.9401 2.86162C11.0369 2.86089 11.1323 2.87837 11.2203 2.9124L11.5807 1.97958ZM10.9378 1.86164C10.7168 1.86099 10.4971 1.90129 10.2912 1.98087L10.6516 2.91365C10.7407 2.87924 10.837 2.86134 10.9349 2.86163L10.9378 1.86164ZM10.2912 1.98087C10.0852 2.06046 9.89596 2.17818 9.73506 2.32868L10.4182 3.05901C10.4835 2.99792 10.5625 2.94806 10.6516 2.91365L10.2912 1.98087ZM9.73506 2.32868C9.5741 2.47923 9.44448 2.6598 9.35517 2.86094L10.2691 3.26674C10.3028 3.19092 10.3529 3.12004 10.4182 3.05901L9.73506 2.32868ZM9.35517 2.86094C9.26583 3.06216 9.219 3.27916 9.21827 3.49926L10.2183 3.50258C10.2185 3.42251 10.2355 3.34247 10.2691 3.26674L9.35517 2.86094ZM9.21827 3.49926C9.21754 3.71935 9.26292 3.93665 9.35095 4.13846L10.2675 3.73862C10.2344 3.66275 10.218 3.58264 10.2183 3.50258L9.21827 3.49926ZM9.35095 4.13846C9.43894 4.34017 9.56741 4.52156 9.72742 4.67311L10.4151 3.94705C10.3503 3.88569 10.3007 3.81458 10.2675 3.73862L9.35095 4.13846ZM9.72742 4.67311C9.88738 4.8246 10.0759 4.94346 10.2814 5.02429L10.6474 4.09368C10.5586 4.05877 10.4799 4.00848 10.4151 3.94705L9.72742 4.67311ZM10.2814 5.02429C10.4868 5.1051 10.7062 5.14669 10.9273 5.14734L10.9302 4.14735C10.8324 4.14706 10.7362 4.1286 10.6474 4.09368L10.2814 5.02429ZM12.7329 6.43302H11.0724V7.43302H12.7329V6.43302ZM11.0723 6.43302C11.129 6.433 11.1863 6.44726 11.2385 6.47638L10.7514 7.34973C10.8505 7.405 10.9613 7.43304 11.0725 7.43302L11.0723 6.43302ZM11.2385 6.47638C11.2909 6.5056 11.338 6.54979 11.3715 6.60744L10.507 7.11003C10.5666 7.21265 10.6522 7.29437 10.7514 7.34973L11.2385 6.47638ZM11.3718 6.60795L10.1674 4.53046L9.30224 5.03201L10.5067 7.10951L11.3718 6.60795ZM10.173 4.54039C10.049 4.31476 9.87189 4.12277 9.65851 3.97802L9.09713 4.80557C9.1834 4.8641 9.25093 4.93893 9.29663 5.02208L10.173 4.54039ZM9.65851 3.97802C9.44525 3.83334 9.20088 3.7393 8.94545 3.70157L8.79932 4.69083C8.90881 4.707 9.01074 4.74697 9.09713 4.80557L9.65851 3.97802ZM8.94545 3.70157C8.69005 3.66384 8.42866 3.68315 8.18182 3.75838L8.47336 4.71494C8.57794 4.68307 8.68981 4.67466 8.79932 4.69083L8.94545 3.70157ZM8.18182 3.75838C7.93493 3.83363 7.70771 3.96331 7.51956 4.1392L8.20247 4.8697C8.27639 4.8006 8.36884 4.7468 8.47336 4.71494L8.18182 3.75838ZM7.51693 4.14167L4.866 6.65595L5.55416 7.38151L8.20509 4.86723L7.51693 4.14167ZM4.86369 6.65815C4.54779 6.96162 4.36274 7.37445 4.35722 7.81242L5.35714 7.82504C5.35917 7.66403 5.42696 7.50372 5.55646 7.37931L4.86369 6.65815ZM4.35718 7.81873C4.35718 8.77199 5.13677 9.12339 5.31544 9.22315L5.80293 8.35002C5.66467 8.27282 5.56519 8.22335 5.47914 8.13663C5.41265 8.06963 5.35718 7.98151 5.35718 7.81873L4.35718 7.81873ZM5.32085 9.22612C6.39896 9.81073 7.15743 10.2379 7.57237 10.4745L8.06769 9.6058C7.64706 9.36596 6.88236 8.9353 5.79753 8.34705L5.32085 9.22612ZM7.57146 10.474C7.52165 10.4454 7.47688 10.4033 7.44428 10.3488L8.30244 9.8354C8.24433 9.73825 8.16283 9.66031 8.0686 9.60632L7.57146 10.474ZM7.44428 10.3488C7.41153 10.294 7.39301 10.2299 7.39289 10.1628L8.39289 10.1611C8.39268 10.045 8.36071 9.93279 8.30244 9.8354L7.44428 10.3488ZM7.39289 10.1619V12.6305H8.39289V10.1619H7.39289ZM7.39289 12.6305C7.39289 13.2148 7.86374 13.6893 8.44733 13.7167L8.49429 12.7178C8.42444 12.7146 8.39289 12.6612 8.39289 12.6305H7.39289ZM8.44816 13.7168C8.59357 13.7234 8.73936 13.7022 8.87706 13.654L8.5465 12.7102C8.53027 12.7159 8.51211 12.7186 8.49346 12.7178L8.44816 13.7168ZM8.87706 13.654C9.01478 13.6057 9.14264 13.531 9.25219 13.4329L8.58499 12.688C8.57557 12.6965 8.56271 12.7045 8.5465 12.7102L8.87706 13.654ZM9.25219 13.4329C9.36182 13.3347 9.45103 13.2149 9.51274 13.0797L8.60302 12.6645C8.5999 12.6713 8.59434 12.6796 8.58499 12.688L9.25219 13.4329ZM9.51274 13.0797C9.57449 12.9444 9.60696 12.7974 9.60717 12.648L8.60717 12.6466C8.60716 12.6517 8.60609 12.6577 8.60302 12.6645L9.51274 13.0797ZM9.60717 12.6473V9.57587H8.60717V12.6473H9.60717ZM9.60717 9.57617C9.60728 9.40069 9.56291 9.22911 9.47954 9.07596L8.60123 9.55404C8.60576 9.56236 8.60717 9.56962 8.60717 9.57557L9.60717 9.57617ZM9.47954 9.07596C9.39628 8.92299 9.27721 8.79394 9.13466 8.69748L8.57424 9.52569C8.5882 9.53513 8.5966 9.54554 8.60123 9.55404L9.47954 9.07596ZM9.13472 8.69752L7.7307 7.74717L7.17016 8.57529L8.57418 9.52565L9.13472 8.69752ZM7.72972 7.7465C7.77001 7.77363 7.80603 7.81018 7.83361 7.8552L6.98092 8.37761C7.03015 8.45798 7.09561 8.52509 7.17114 8.57595L7.72972 7.7465ZM7.83361 7.8552C7.86128 7.90036 7.87937 7.95236 7.88506 8.00771L6.89029 8.10988C6.90015 8.20583 6.9316 8.29712 6.98092 8.37761L7.83361 7.8552ZM7.88506 8.00771C7.89075 8.0631 7.88366 8.11857 7.86497 8.16986L6.92538 7.82757C6.89264 7.91744 6.88043 8.01389 6.89029 8.10988L7.88506 8.00771ZM7.86497 8.16986C7.84633 8.22104 7.81711 8.2655 7.78131 8.30117L7.07554 7.59272C7.00997 7.65804 6.95808 7.7378 6.92538 7.82757L7.86497 8.16986ZM7.78263 8.29984L9.37638 6.7002L8.66797 5.9944L7.07422 7.59404L7.78263 8.29984ZM9.37698 6.69959C9.33774 6.73912 9.29142 6.76713 9.24299 6.78369L8.91951 5.83745C8.82609 5.86938 8.73928 5.92257 8.66736 5.99501L9.37698 6.69959ZM9.24299 6.78369C9.19463 6.80022 9.14381 6.80549 9.09408 6.79973L9.20913 5.80637C9.1119 5.79511 9.01286 5.80554 8.91951 5.83745L9.24299 6.78369ZM9.09408 6.79973C9.04434 6.79397 8.99493 6.77706 8.95001 6.74855L9.48586 5.90424C9.40125 5.85054 9.30638 5.81764 9.20913 5.80637L9.09408 6.79973ZM8.95001 6.74855C8.90498 6.71998 8.86481 6.67988 8.83509 6.62949L9.69648 6.12154C9.64354 6.03176 9.57057 5.958 9.48586 5.90424L8.95001 6.74855ZM8.83491 6.62918L9.6629 8.03561L10.5247 7.52828L9.69666 6.12185L8.83491 6.62918ZM9.66319 8.0361C9.76263 8.20457 9.90584 8.34109 10.0748 8.43456L10.5589 7.55956C10.541 7.54966 10.5302 7.53762 10.5244 7.52779L9.66319 8.0361ZM10.0748 8.43456C10.2436 8.52794 10.4336 8.57602 10.6254 8.57587L10.6246 7.57587C10.5998 7.57589 10.5769 7.56955 10.5589 7.55956L10.0748 8.43456ZM10.625 8.57587H12.75V7.57587H10.625V8.57587ZM12.7495 8.57587C12.8953 8.57603 13.0402 8.54835 13.1759 8.49378L12.8027 7.56602C12.7871 7.57229 12.7693 7.57589 12.7506 7.57587L12.7495 8.57587ZM13.1759 8.49378C13.3116 8.4392 13.4361 8.35843 13.5411 8.25485L12.8389 7.54295C12.8303 7.55139 12.8183 7.55976 12.8027 7.56602L13.1759 8.49378ZM13.5411 8.25485C13.6462 8.15121 13.7296 8.02676 13.7845 7.88823L12.8548 7.51992C12.8522 7.52645 12.8474 7.53457 12.8389 7.54295L13.5411 8.25485ZM13.7845 7.88823C13.8394 7.74959 13.8642 7.60083 13.8565 7.45138L12.8578 7.50251C12.8581 7.5077 12.8573 7.51349 12.8548 7.51992L13.7845 7.88823ZM13.8565 7.45106C13.8245 6.83459 13.2802 6.43302 12.7329 6.43302V7.43302C12.7764 7.43302 12.8127 7.44904 12.8352 7.46847C12.8566 7.48688 12.8577 7.49992 12.8578 7.50282L13.8565 7.45106ZM5.41453 2.19215L6.23514 2.96448L6.9205 2.23628L6.0999 1.46395L5.41453 2.19215ZM6.23514 4.29238L5.41426 5.06497L6.09963 5.79317L6.9205 5.02058L6.23514 4.29238ZM3.91503 5.06497L3.09442 4.29264L2.40906 5.02084L3.22966 5.79317L3.91503 5.06497ZM3.09442 2.96474L3.9153 2.19215L3.22993 1.46395L2.40906 2.23654L3.09442 2.96474ZM3.09442 4.29264C2.70092 3.92228 2.70092 3.3351 3.09442 2.96474L2.40906 2.23654C1.59604 3.00174 1.59604 4.25564 2.40906 5.02084L3.09442 4.29264ZM5.41426 5.06497C5.00353 5.45154 4.32576 5.45154 3.91503 5.06497L3.22966 5.79317C4.02545 6.54214 5.30384 6.54214 6.09963 5.79317L5.41426 5.06497ZM6.23514 2.96448C6.62864 3.33484 6.62864 3.92202 6.23514 4.29238L6.9205 5.02058C7.73352 4.25539 7.73352 3.00148 6.9205 2.23628L6.23514 2.96448ZM6.0999 1.46395C5.30411 0.714978 4.02572 0.714978 3.22993 1.46395L3.9153 2.19215C4.32603 1.80558 5.0038 1.80558 5.41453 2.19215L6.0999 1.46395ZM15.9689 12.3616C15.9689 13.438 15.0325 14.3616 13.8126 14.3616V15.3616C15.5268 15.3616 16.9689 14.0466 16.9689 12.3616H15.9689ZM13.8126 14.3616C12.5928 14.3616 11.6564 13.438 11.6564 12.3616H10.6564C10.6564 14.0466 12.0985 15.3616 13.8126 15.3616V14.3616ZM11.6564 12.3616C11.6564 11.2852 12.5928 10.3616 13.8126 10.3616V9.3616C12.0985 9.3616 10.6564 10.6766 10.6564 12.3616H11.6564ZM13.8126 10.3616C15.0325 10.3616 15.9689 11.2852 15.9689 12.3616H16.9689C16.9689 10.6766 15.5268 9.3616 13.8126 9.3616V10.3616ZM5.34399 12.3616C5.34399 13.438 4.4076 14.3616 3.18774 14.3616V15.3616C4.9019 15.3616 6.34399 14.0466 6.34399 12.3616H5.34399ZM3.18774 14.3616C1.96789 14.3616 1.03149 13.438 1.03149 12.3616H0.0314941C0.0314941 14.0466 1.47358 15.3616 3.18774 15.3616V14.3616ZM1.03149 12.3616C1.03149 11.2852 1.96789 10.3616 3.18774 10.3616V9.3616C1.47358 9.3616 0.0314941 10.6766 0.0314941 12.3616H1.03149ZM3.18774 10.3616C4.4076 10.3616 5.34399 11.2852 5.34399 12.3616H6.34399C6.34399 10.6766 4.9019 9.3616 3.18774 9.3616V10.3616Z" fill="#47B200"/>
</svg>
