<svg width="17" height="16" viewBox="0 0 17 16" fill="none" xmlns="http://www.w3.org/2000/svg">
<path d="M10.9302 4.64735C11.0902 4.64787 11.2486 4.61855 11.3964 4.56108C11.5443 4.5036 11.6785 4.41912 11.7914 4.31251C11.9043 4.20591 11.9937 4.07929 12.0543 3.93999C12.1149 3.80068 12.1456 3.65145 12.1445 3.50092C12.1463 3.35115 12.1163 3.20254 12.0563 3.0638C11.9964 2.92506 11.9076 2.79896 11.7953 2.69288C11.6829 2.5868 11.5492 2.50287 11.402 2.446C11.2547 2.38912 11.097 2.36044 10.9378 2.36164C10.7783 2.36117 10.6204 2.39027 10.4728 2.44727C10.3253 2.50427 10.1912 2.58806 10.0781 2.69385C9.96496 2.79964 9.8751 2.92536 9.81362 3.06384C9.75213 3.20232 9.72023 3.35084 9.71973 3.50092C9.71923 3.651 9.75015 3.79971 9.81071 3.93855C9.87128 4.07738 9.9603 4.20363 10.0727 4.31009C10.1851 4.41655 10.3187 4.50112 10.4658 4.55899C10.613 4.61686 10.7708 4.64688 10.9302 4.64735V4.64735Z" fill="#47B200"/>
<path d="M12.7332 6.93301H11.0727C11.0454 6.93301 11.0187 6.92612 10.9952 6.91305C10.9718 6.89998 10.9525 6.88121 10.9395 6.85872L9.73505 4.78122C9.65019 4.62684 9.52789 4.49342 9.37806 4.39178C9.22824 4.29015 9.05509 4.22314 8.87263 4.19619C8.69018 4.16924 8.50354 4.1831 8.32784 4.23665C8.15213 4.2902 7.99229 4.38194 7.86126 4.50444L5.21032 7.01872C4.98761 7.23266 4.8612 7.51923 4.85742 7.81872C4.85742 8.44015 5.33555 8.66157 5.55943 8.78657C6.6409 9.373 7.40248 9.80193 7.82027 10.0401C7.84248 10.0529 7.86085 10.0708 7.87361 10.0921C7.88636 10.1134 7.89309 10.1375 7.89313 10.1619V12.6305C7.89313 12.938 8.14434 13.2019 8.47105 13.2173C8.55308 13.221 8.63506 13.209 8.71202 13.1821C8.78899 13.1551 8.85935 13.1137 8.91883 13.0604C8.97832 13.0072 9.02571 12.9431 9.05812 12.8721C9.09054 12.801 9.1073 12.7246 9.10741 12.6473V9.57586C9.10747 9.48515 9.08458 9.39572 9.04063 9.31499C8.99668 9.23426 8.93295 9.16453 8.85469 9.11157L7.45068 8.16122C7.43305 8.14935 7.41833 8.13407 7.40751 8.1164C7.39668 8.09873 7.39 8.07909 7.38792 8.05878C7.38583 8.03848 7.38839 8.018 7.39542 7.9987C7.40245 7.97941 7.41379 7.96176 7.42867 7.94693L9.02241 6.34729C9.03876 6.33084 9.059 6.31825 9.08149 6.31056C9.10399 6.30287 9.1281 6.30029 9.15185 6.30304C9.17561 6.3058 9.19833 6.31379 9.21818 6.32639C9.23802 6.33898 9.25442 6.35581 9.26603 6.37551L10.094 7.78193C10.1466 7.87109 10.2237 7.94536 10.3171 7.99705C10.4105 8.04873 10.5169 8.07595 10.6253 8.07586H12.7503C12.8325 8.07595 12.9139 8.06031 12.9896 8.02989C13.0652 7.99947 13.1335 7.9549 13.1902 7.89889C13.247 7.84288 13.2911 7.7766 13.3199 7.70406C13.3486 7.63153 13.3614 7.55426 13.3574 7.47693C13.3415 7.16943 13.0599 6.93301 12.7332 6.93301Z" fill="#47B200"/>
<rect width="4.12689" height="4.12727" rx="1.5" transform="matrix(0.7282 0.685365 -0.7282 0.685365 4.66602 0.800003)" stroke="#47B200"/>
<path d="M13.8125 14.8616C15.2795 14.8616 16.4687 13.7423 16.4687 12.3616C16.4687 10.9809 15.2795 9.8616 13.8125 9.8616C12.3455 9.8616 11.1562 10.9809 11.1562 12.3616C11.1562 13.7423 12.3455 14.8616 13.8125 14.8616Z" stroke="#47B200"/>
<path d="M3.18848 14.8616C4.65548 14.8616 5.84473 13.7423 5.84473 12.3616C5.84473 10.9809 4.65548 9.8616 3.18848 9.8616C1.72147 9.8616 0.532227 10.9809 0.532227 12.3616C0.532227 13.7423 1.72147 14.8616 3.18848 14.8616Z" stroke="#47B200"/>
</svg>
