<svg width="20" height="15" viewBox="0 0 20 15" fill="none" xmlns="http://www.w3.org/2000/svg">
<path d="M0 0.75C0 0.335786 0.335786 0 0.75 0H18.75C19.1642 0 19.5 0.335786 19.5 0.75C19.5 1.16421 19.1642 1.5 18.75 1.5H0.75C0.335786 1.5 0 1.16421 0 0.75Z" fill="#47B200"/>
<path d="M0.75 6C0.335786 6 0 6.33579 0 6.75C0 7.16421 0.335786 7.5 0.75 7.5H18.75C19.1642 7.5 19.5 7.16421 19.5 6.75C19.5 6.33579 19.1642 6 18.75 6H0.75Z" fill="#47B200"/>
<path d="M0.75 12C0.335786 12 0 12.3358 0 12.75C0 13.1642 0.335786 13.5 0.75 13.5H10.75C11.1642 13.5 11.5 13.1642 11.5 12.75C11.5 12.3358 11.1642 12 10.75 12H0.75Z" fill="#47B200"/>
<path d="M19.2803 11.2803C19.5732 10.9874 19.5732 10.5126 19.2803 10.2197C18.9874 9.92678 18.5126 9.92678 18.2197 10.2197L15.75 12.6893L15.2803 12.2197C14.9874 11.9268 14.5126 11.9268 14.2197 12.2197C13.9268 12.5126 13.9268 12.9874 14.2197 13.2803L15.2197 14.2803C15.5126 14.5732 15.9874 14.5732 16.2803 14.2803L19.2803 11.2803Z" fill="#47B200"/>
</svg>
