<svg width="14" height="16" viewBox="0 0 14 16" fill="none" xmlns="http://www.w3.org/2000/svg">
<path fill-rule="evenodd" clip-rule="evenodd" d="M7.00205 1.83334C4.72419 1.83181 2.49625 3.1536 1.90081 5.77074C1.19621 8.88403 3.12514 11.5839 4.93978 13.3329C6.09344 14.4407 7.90694 14.4394 9.05266 13.3336L9.05357 13.3327C10.8749 11.5837 12.8037 8.8903 12.0989 5.77707L12.0989 5.77705C11.5065 3.15981 9.28002 1.83488 7.00205 1.83334ZM13.0742 5.55631C12.3599 2.40021 9.65643 0.835139 7.00273 0.833345C4.34897 0.831551 1.64363 2.39303 0.92568 5.5491L0.925563 5.54962C0.097095 9.20929 2.38108 12.2558 4.24625 14.0534L4.24688 14.054C5.78643 15.5325 8.21249 15.5339 9.74672 14.0535C11.6187 12.2557 13.9027 9.21607 13.0742 5.55631ZM9.18678 5.64646C9.38204 5.84172 9.38204 6.1583 9.18678 6.35356L6.52011 9.02023C6.32485 9.21549 6.00827 9.21549 5.813 9.02023L4.813 8.02023C4.61774 7.82497 4.61774 7.50839 4.813 7.31312C5.00827 7.11786 5.32485 7.11786 5.52011 7.31312L6.16656 7.95957L8.47967 5.64646C8.67493 5.4512 8.99152 5.4512 9.18678 5.64646Z" fill="#5A5D5A"/>
</svg>
