<svg width="17" height="17" viewBox="0 0 17 17" fill="none" xmlns="http://www.w3.org/2000/svg">
<path fill-rule="evenodd" clip-rule="evenodd" d="M8.5 0C13.194 0 17 3.79896 17 8.48433C17 13.1697 13.194 16.9687 8.5 16.9687C3.80598 16.9687 0 13.1697 0 8.48433C0 3.79896 3.76366 0 8.5 0Z" fill="#FEFEFE"/>
<path fill-rule="evenodd" clip-rule="evenodd" d="M15.4546 10.2643C14.6913 13.3434 11.8501 15.6634 8.50002 15.6634C5.14995 15.6634 2.30875 13.3856 1.54547 10.2643C6.33733 10.2643 10.6203 10.2643 15.4546 10.2643Z" fill="#B61426"/>
<path fill-rule="evenodd" clip-rule="evenodd" d="M8.48286 1.30522C12.4175 1.30522 15.6328 4.53366 15.6328 8.48427H13.2636C13.2636 5.80803 11.1059 3.64161 8.44054 3.64161C5.77516 3.64161 3.61747 5.80803 3.61747 8.48427H1.24823C1.33287 4.53366 4.50593 1.30522 8.48286 1.30522Z" fill="#B61426"/>
</svg>
