<svg width="21" height="24" viewBox="0 0 21 24" fill="none" xmlns="http://www.w3.org/2000/svg">
<path d="M14.3909 6.23462L5.09086 15.6909C4.78297 16.0307 4.61755 16.4759 4.62883 16.9343C4.64012 17.3927 4.82725 17.8292 5.15149 18.1534C5.47573 18.4777 5.91224 18.6648 6.37064 18.6761C6.82904 18.6874 7.27423 18.522 7.61403 18.2141L18.7003 6.97147C19.3161 6.29187 19.647 5.40149 19.6244 4.48469C19.6018 3.56789 19.2275 2.69487 18.5791 2.0464C17.9306 1.39792 17.0576 1.02366 16.1408 1.00108C15.224 0.978511 14.3336 1.30936 13.654 1.92514L2.56769 13.1677C1.56392 14.1715 1 15.5329 1 16.9525C1 18.3721 1.56392 19.7335 2.56769 20.7372C3.57147 21.741 4.93289 22.3049 6.35245 22.3049C7.772 22.3049 9.13342 21.741 10.1372 20.7372L19.3032 11.5936" stroke="#5A5D5A" stroke-width="1.5" stroke-linecap="round" stroke-linejoin="round"/>
</svg>
