<svg width="24" height="24" viewBox="0 0 24 24" fill="none" xmlns="http://www.w3.org/2000/svg">
<path fill-rule="evenodd" clip-rule="evenodd" d="M9.90024 1.79997C5.42674 1.79997 1.80024 5.42646 1.80024 9.89997C1.80024 14.3735 5.42674 18 9.90024 18C14.3738 18 18.0002 14.3735 18.0002 9.89997C18.0002 5.42646 14.3738 1.79997 9.90024 1.79997ZM0.000244141 9.89997C0.000244141 4.43235 4.43262 -3.05176e-05 9.90024 -3.05176e-05C15.3679 -3.05176e-05 19.8002 4.43235 19.8002 9.89997C19.8002 12.3098 18.9392 14.5185 17.5081 16.2352L23.5005 22.2276C23.8519 22.579 23.8519 23.1489 23.5005 23.5004C23.149 23.8518 22.5791 23.8518 22.2277 23.5004L16.2353 17.508C14.5186 18.939 12.3099 19.8 9.90024 19.8C4.43262 19.8 0.000244141 15.3676 0.000244141 9.89997Z" fill="#47B200"/>
</svg>
