<svg width="21" height="21" viewBox="0 0 21 21" fill="none" xmlns="http://www.w3.org/2000/svg">
<path d="M9.4597 14.5503V16.242C9.4597 17.6753 8.12636 18.8336 6.48469 18.8336C4.84302 18.8336 3.50134 17.6753 3.50134 16.242V14.5503C3.50134 15.9836 4.83469 17.0003 6.48469 17.0003C8.12636 17.0003 9.4597 15.9753 9.4597 14.5503Z" stroke="#47B200" stroke-linecap="round" stroke-linejoin="round"/>
<path d="M9.45834 12.2584C9.45834 12.675 9.34167 13.0583 9.14167 13.3917C8.65001 14.2 7.64166 14.7084 6.475 14.7084C5.30833 14.7084 4.29999 14.1917 3.80832 13.3917C3.60832 13.0583 3.4917 12.675 3.4917 12.2584C3.4917 11.5417 3.82501 10.9 4.35835 10.4334C4.90001 9.95836 5.64165 9.67505 6.46665 9.67505C7.29165 9.67505 8.03335 9.96669 8.57501 10.4334C9.12501 10.8917 9.45834 11.5417 9.45834 12.2584Z" stroke="#47B200" stroke-linecap="round" stroke-linejoin="round"/>
<path d="M9.4597 12.2583V14.5499C9.4597 15.9833 8.12636 16.9999 6.48469 16.9999C4.84302 16.9999 3.50134 15.9749 3.50134 14.5499V12.2583C3.50134 10.8249 4.83469 9.66663 6.48469 9.66663C7.30969 9.66663 8.05138 9.95827 8.59305 10.4249C9.12638 10.8916 9.4597 11.5416 9.4597 12.2583Z" stroke="#47B200" stroke-linecap="round" stroke-linejoin="round"/>
<path d="M18.8333 9.64159V11.3583C18.8333 11.8166 18.4667 12.1916 18 12.2083H16.3667C15.4667 12.2083 14.6417 11.5499 14.5667 10.6499C14.5167 10.1249 14.7167 9.63327 15.0667 9.29161C15.375 8.97494 15.8 8.79163 16.2667 8.79163H18C18.4667 8.80829 18.8333 9.18326 18.8333 9.64159Z" stroke="#47B200" stroke-linecap="round" stroke-linejoin="round"/>
<path d="M2.16663 9.24996V7.58329C2.16663 5.31663 3.53329 3.73329 5.65829 3.46662C5.87496 3.43329 6.09996 3.41663 6.33329 3.41663H13.8333C14.05 3.41663 14.2583 3.42495 14.4583 3.45828C16.6083 3.70828 18 5.29996 18 7.58329V8.79164H16.2666C15.7999 8.79164 15.3749 8.97495 15.0666 9.29162C14.7166 9.63328 14.5166 10.125 14.5666 10.65C14.6416 11.55 15.4666 12.2083 16.3666 12.2083H18V13.4166C18 15.9166 16.3333 17.5833 13.8333 17.5833H11.75" stroke="#47B200" stroke-linecap="round" stroke-linejoin="round"/>
</svg>
