<svg width="13" height="14" viewBox="0 0 13 14" fill="none" xmlns="http://www.w3.org/2000/svg">
<path fill-rule="evenodd" clip-rule="evenodd" d="M12.3424 0.635576C12.4916 0.775701 12.5403 0.99259 12.4653 1.18305L7.74477 13.183C7.65683 13.4066 7.42234 13.536 7.18633 13.4913C6.95031 13.4465 6.77948 13.2402 6.77948 13V6.64274H1.00005C0.765699 6.64274 0.562792 6.47997 0.511956 6.2512C0.461119 6.02243 0.575995 5.78904 0.788289 5.68979L11.7883 0.547068C11.9737 0.460388 12.1932 0.495452 12.3424 0.635576ZM3.2501 5.64274H7.27948C7.55562 5.64274 7.77948 5.86659 7.77948 6.14274V10.3631L11.0756 1.98415L3.2501 5.64274Z" fill="#47B200"/>
</svg>
