<svg width="18" height="18" viewBox="0 0 18 18" fill="none" xmlns="http://www.w3.org/2000/svg">
<path d="M6.69567 1.01975C6.89066 0.824221 6.89022 0.507639 6.69469 0.312646C6.49916 0.117654 6.18258 0.11809 5.98759 0.313622L6.69567 1.01975ZM2.97092 3.33862C2.77593 3.53415 2.77636 3.85074 2.97189 4.04573C3.16743 4.24072 3.48401 4.24028 3.679 4.04475L2.97092 3.33862ZM12.0123 0.313622C11.8173 0.11809 11.5008 0.117654 11.3052 0.312646C11.1097 0.507639 11.1093 0.824221 11.3043 1.01975L12.0123 0.313622ZM14.3209 4.04475C14.5159 4.24028 14.8325 4.24072 15.028 4.04573C15.2236 3.85074 15.224 3.53415 15.029 3.33862L14.3209 4.04475ZM7.63329 10.6667C7.63329 10.3905 7.40944 10.1667 7.13329 10.1667C6.85715 10.1667 6.63329 10.3905 6.63329 10.6667H7.63329ZM6.63329 13.625C6.63329 13.9012 6.85715 14.125 7.13329 14.125C7.40944 14.125 7.63329 13.9012 7.63329 13.625H6.63329ZM11.4666 10.6667C11.4666 10.3905 11.2428 10.1667 10.9666 10.1667C10.6905 10.1667 10.4666 10.3905 10.4666 10.6667H11.4666ZM10.4666 13.625C10.4666 13.9012 10.6905 14.125 10.9666 14.125C11.2428 14.125 11.4666 13.9012 11.4666 13.625H10.4666ZM2.4101 7.25282C2.36562 6.98028 2.10863 6.7954 1.83609 6.83988C1.56356 6.88436 1.37868 7.14135 1.42315 7.41389L2.4101 7.25282ZM3.09163 14.5334L2.59815 14.6139L2.59829 14.6147L3.09163 14.5334ZM14.6833 14.6334L14.1922 14.5392L14.1922 14.5393L14.6833 14.6334ZM16.5743 7.42753C16.6264 7.15633 16.4487 6.89431 16.1775 6.8423C15.9063 6.79029 15.6443 6.96798 15.5922 7.23918L16.5743 7.42753ZM5.98759 0.313622L2.97092 3.33862L3.679 4.04475L6.69567 1.01975L5.98759 0.313622ZM11.3043 1.01975L14.3209 4.04475L15.029 3.33862L12.0123 0.313622L11.3043 1.01975ZM1.16663 5.54169C1.16663 4.85292 1.34776 4.63791 1.4855 4.54566C1.67703 4.41737 1.98877 4.37502 2.51663 4.37502V3.37502C2.01948 3.37502 1.40622 3.39517 0.929005 3.7148C0.397993 4.07046 0.166626 4.68878 0.166626 5.54169H1.16663ZM2.51663 4.37502H15.4833V3.37502H2.51663V4.37502ZM15.4833 4.37502C16.0111 4.37502 16.3229 4.41737 16.5144 4.54566C16.6522 4.63791 16.8333 4.85292 16.8333 5.54169H17.8333C17.8333 4.68878 17.6019 4.07046 17.0709 3.7148C16.5937 3.39517 15.9804 3.37502 15.4833 3.37502V4.37502ZM16.8333 5.54169C16.8333 6.39198 16.6341 6.56116 16.543 6.61369C16.4706 6.6554 16.3585 6.68725 16.1681 6.70124C15.971 6.71572 15.7631 6.70835 15.4833 6.70835V7.70835C15.716 7.70835 15.9955 7.71661 16.2414 7.69855C16.4941 7.67998 16.7803 7.6311 17.0423 7.4801C17.6199 7.14721 17.8333 6.48306 17.8333 5.54169H16.8333ZM15.4833 6.70835H2.51663V7.70835H15.4833V6.70835ZM2.51663 6.70835C2.23681 6.70835 2.02888 6.71572 1.83179 6.70124C1.64146 6.68725 1.52929 6.6554 1.45692 6.61369C1.36577 6.56116 1.16663 6.39198 1.16663 5.54169H0.166626C0.166626 6.48306 0.379978 7.14721 0.957584 7.4801C1.21959 7.6311 1.50586 7.67998 1.7585 7.69855C2.00437 7.71661 2.28394 7.70835 2.51663 7.70835V6.70835ZM6.63329 10.6667V13.625H7.63329V10.6667H6.63329ZM10.4666 10.6667V13.625H11.4666V10.6667H10.4666ZM1.42315 7.41389L2.59815 14.6139L3.5851 14.4528L2.4101 7.25282L1.42315 7.41389ZM2.59829 14.6147C2.73651 15.4527 2.98504 16.2804 3.58793 16.8909C4.20492 17.5158 5.11041 17.8334 6.38329 17.8334V16.8334C5.27284 16.8334 4.66583 16.5593 4.29949 16.1883C3.91905 15.803 3.71341 15.2307 3.58496 14.452L2.59829 14.6147ZM6.38329 17.8334H11.4083V16.8334H6.38329V17.8334ZM11.4083 17.8334C12.7668 17.8334 13.6741 17.5372 14.2669 16.9161C14.8383 16.3174 15.0265 15.4998 15.1744 14.7274L14.1922 14.5393C14.0401 15.3335 13.8867 15.866 13.5435 16.2257C13.2216 16.5629 12.6414 16.8334 11.4083 16.8334V17.8334ZM15.1743 14.7275L16.5743 7.42753L15.5922 7.23918L14.1922 14.5392L15.1743 14.7275Z" fill="white"/>
</svg>
