<svg width="19" height="18" viewBox="0 0 19 18" fill="none" xmlns="http://www.w3.org/2000/svg">
<path d="M8.45961 12.5503V14.2419C8.45961 15.6753 7.12628 16.8336 5.48461 16.8336C3.84294 16.8336 2.50126 15.6753 2.50126 14.2419V12.5503M8.45961 12.5503C8.45961 13.9753 7.12628 15.0003 5.48461 15.0003M8.45961 12.5503V10.2583C8.45961 9.54161 8.1263 8.8916 7.59297 8.42494C7.0513 7.95827 6.30961 7.66663 5.48461 7.66663C3.83461 7.66663 2.50126 8.82495 2.50126 10.2583V12.5503M8.45961 12.5503C8.45961 13.9836 7.12628 15.0003 5.48461 15.0003M2.50126 12.5503C2.50126 13.9836 3.83461 15.0003 5.48461 15.0003M2.50126 12.5503C2.50126 13.9753 3.84294 15.0003 5.48461 15.0003M17 10.2083C17.4667 10.1916 17.8333 9.81665 17.8333 9.35832V7.6416C17.8333 7.18327 17.4667 6.8083 17 6.79164M17 10.2083H15.3666C14.4666 10.2083 13.6417 9.54995 13.5667 8.64995C13.5167 8.12495 13.7166 7.63328 14.0666 7.29162C14.375 6.97495 14.8 6.79164 15.2666 6.79164H17M17 10.2083L17 11.4166C17 13.9166 15.3333 15.5833 12.8333 15.5833H10.75M17 6.79164L17 5.58329C17 3.29996 15.6083 1.70828 13.4583 1.45828C13.2583 1.42495 13.05 1.41663 12.8333 1.41663H5.33329C5.09996 1.41663 4.87496 1.43329 4.65829 1.46662C2.53329 1.73329 1.16663 3.31663 1.16663 5.58329V7.24996M8.45829 10.2583C8.45829 10.6749 8.34162 11.0583 8.14162 11.3916C7.64995 12.1999 6.64161 12.7083 5.47495 12.7083C4.30828 12.7083 3.29993 12.1916 2.80827 11.3916C2.60827 11.0583 2.49165 10.6749 2.49165 10.2583C2.49165 9.54161 2.82496 8.89994 3.3583 8.43328C3.89996 7.95828 4.6416 7.67497 5.4666 7.67497C6.2916 7.67497 7.03329 7.96661 7.57496 8.43328C8.12496 8.89161 8.45829 9.54161 8.45829 10.2583Z" stroke="#47B200" stroke-linecap="round" stroke-linejoin="round"/>
</svg>
