<svg width="16" height="16" viewBox="0 0 16 16" fill="none" xmlns="http://www.w3.org/2000/svg">
<path d="M14.8813 7.60396V10.6131C14.8813 13.6222 13.6134 14.8286 10.4259 14.8286H6.60797C6.19714 14.8286 5.82169 14.8085 5.47461 14.7616" stroke="#5A5D5A" stroke-linecap="round" stroke-linejoin="round"/>
<path d="M2.15332 10.4858V7.60396" stroke="#5A5D5A" stroke-linecap="round" stroke-linejoin="round"/>
<path d="M8.52135 8.12672C9.8176 8.12672 10.7739 7.12818 10.6464 5.90173L10.1717 1.42485H6.86383L6.38926 5.90173C6.26176 7.12818 7.2251 8.12672 8.52135 8.12672Z" stroke="#5A5D5A" stroke-linecap="round" stroke-linejoin="round"/>
<path d="M12.983 8.12672C14.4138 8.12672 15.4622 7.0276 15.3205 5.68052L15.1221 3.83751C14.8671 2.09502 14.1588 1.42485 12.303 1.42485H10.1426L10.6384 6.12287C10.7659 7.22868 11.8143 8.12672 12.983 8.12672Z" stroke="#5A5D5A" stroke-linecap="round" stroke-linejoin="round"/>
<path d="M4.01553 8.12672C5.18428 8.12672 6.23969 7.22868 6.35303 6.12287L6.50888 4.64178L6.84887 1.42485H4.68846C2.83263 1.42485 2.12431 2.09502 1.86931 3.83751L1.67095 5.68052C1.52929 7.0276 2.5847 8.12672 4.01553 8.12672Z" stroke="#5A5D5A" stroke-linecap="round" stroke-linejoin="round"/>
<path d="M6.37467 12.818C6.37467 13.3207 6.22591 13.7965 5.96383 14.1987C5.82925 14.4131 5.66633 14.6074 5.47508 14.7616C5.45383 14.7884 5.43259 14.8085 5.40426 14.8286C4.90843 15.2508 4.25676 15.4988 3.54134 15.4988C2.67717 15.4988 1.90507 15.1302 1.39507 14.5538C1.3809 14.5337 1.35969 14.5203 1.34553 14.5002C1.26053 14.4064 1.1826 14.3059 1.11885 14.1987C0.85677 13.7965 0.708008 13.3207 0.708008 12.818C0.708008 11.9736 1.11884 11.2163 1.77051 10.7271C1.89092 10.6332 2.01841 10.5528 2.15299 10.4858C2.56383 10.2646 3.03842 10.1373 3.54134 10.1373C4.24967 10.1373 4.88716 10.3785 5.38299 10.7873C5.46799 10.8477 5.54592 10.9214 5.61675 10.9951C6.08425 11.4777 6.37467 12.1143 6.37467 12.818Z" stroke="#5A5D5A" stroke-miterlimit="10" stroke-linecap="round" stroke-linejoin="round"/>
<path d="M4.59715 12.8046H2.48633" stroke="#5A5D5A" stroke-miterlimit="10" stroke-linecap="round" stroke-linejoin="round"/>
<path d="M3.54199 11.8262V13.83" stroke="#5A5D5A" stroke-miterlimit="10" stroke-linecap="round" stroke-linejoin="round"/>
</svg>
