<svg width="16" height="16" viewBox="0 0 16 16" fill="none" xmlns="http://www.w3.org/2000/svg">
<path fill-rule="evenodd" clip-rule="evenodd" d="M2.35016 1.60126C2.92614 1.09789 3.71515 0.92485 4.68908 0.92485H6.84949C6.85184 0.92485 6.8542 0.924867 6.85656 0.9249C6.85893 0.924867 6.8613 0.92485 6.86368 0.92485H12.3037C13.2776 0.92485 14.0666 1.09789 14.6426 1.60126C15.2178 2.10396 15.4839 2.85209 15.6175 3.76511C15.6185 3.77139 15.6193 3.77769 15.6199 3.784L15.8184 5.62823C15.8907 6.3154 15.7113 6.94448 15.3569 7.44704C15.3732 7.49639 15.382 7.54914 15.382 7.60395V10.6131C15.382 12.1728 15.0556 13.3955 14.1935 14.2123C13.3381 15.0225 12.064 15.3286 10.4266 15.3286H6.60868C6.26797 15.3286 5.94491 15.3153 5.63746 15.2841C5.06265 15.7384 4.33154 15.9988 3.54159 15.9988C2.53439 15.9988 1.62589 15.5689 1.02086 14.8851C1.01963 14.8837 1.0184 14.8823 1.01718 14.8809C1.01143 14.8754 1.00387 14.8679 0.996091 14.8598C0.986775 14.85 0.975191 14.8373 0.962584 14.8219C0.867553 14.7156 0.774696 14.5961 0.694749 14.4633C0.384638 13.984 0.208252 13.4168 0.208252 12.818C0.208252 11.8076 0.700013 10.9073 1.46699 10.3299C1.52747 10.2829 1.58956 10.2386 1.65324 10.197V7.60395C1.65324 7.56358 1.65802 7.52432 1.66706 7.48672C1.29246 6.97804 1.10008 6.33406 1.17431 5.62823L1.17444 5.62702L1.3728 3.784C1.37348 3.77769 1.37427 3.77139 1.37519 3.76511C1.50881 2.85209 1.77495 2.10396 2.35016 1.60126ZM2.65324 8.31154V9.75353C2.93664 9.67786 3.23475 9.63728 3.54159 9.63728C4.36005 9.63728 5.10485 9.91486 5.68808 10.3907C5.80272 10.4741 5.89992 10.568 5.97676 10.6479C6.52497 11.2141 6.87492 11.9721 6.87492 12.818C6.87492 13.3613 6.72971 13.8786 6.47117 14.3278C6.51642 14.3283 6.56225 14.3286 6.60868 14.3286H10.4266C11.9766 14.3286 12.9302 14.0315 13.5057 13.4863C14.0744 12.9476 14.382 12.0626 14.382 10.6131V8.2928C13.9709 8.50647 13.4947 8.62672 12.9837 8.62672C12.0931 8.62672 11.2532 8.19618 10.7174 7.53021C10.2473 8.19928 9.44405 8.62672 8.5212 8.62672C7.5881 8.62672 6.77337 8.18921 6.30335 7.50572C5.76915 8.18679 4.91499 8.62672 4.01615 8.62672C3.52056 8.62672 3.05691 8.51352 2.65324 8.31154ZM6.29394 1.92485H4.68908C3.80717 1.92485 3.31411 2.0869 3.00822 2.35423C2.7027 2.62124 2.48765 3.07702 2.36602 3.90064L2.16883 5.73282C2.16881 5.733 2.16885 5.73263 2.16883 5.73282C2.06179 6.75371 2.85057 7.62672 4.01615 7.62672C4.9529 7.62672 5.77147 6.89906 5.85625 6.07189L5.85641 6.07039L6.29394 1.92485ZM6.88637 5.95401C6.79309 6.85443 7.48993 7.62672 8.5212 7.62672C9.43527 7.62672 10.0837 7.01895 10.1515 6.25041C10.1481 6.22708 10.1451 6.20365 10.1424 6.18014L10.1418 6.17535L9.69325 1.92485H7.31348L6.88637 5.95401C6.88635 5.9542 6.88638 5.95382 6.88637 5.95401ZM10.7274 1.92485L11.1435 5.85003C11.1557 5.96733 11.16 6.08278 11.1568 6.19598C11.3182 6.97522 12.0994 7.62672 12.9837 7.62672C14.1471 7.62672 14.9312 6.75626 14.824 5.73333C14.8239 5.73316 14.824 5.73351 14.824 5.73333L14.6267 3.90062C14.5051 3.07701 14.29 2.62123 13.9845 2.35423C13.6786 2.0869 13.1856 1.92485 12.3037 1.92485H10.7274ZM3.54159 10.6373C3.12356 10.6373 2.73016 10.7431 2.39024 10.9261L2.37612 10.9334C2.27184 10.9853 2.17259 11.0478 2.07807 11.1215L2.07099 11.127C1.53668 11.5281 1.20825 12.1411 1.20825 12.818C1.20825 13.221 1.32732 13.6024 1.53798 13.9256C1.54173 13.9314 1.54537 13.9372 1.54888 13.9431C1.59171 14.0152 1.6479 14.089 1.71632 14.1645C1.71886 14.1673 1.72137 14.1702 1.72385 14.173C1.7296 14.1786 1.73719 14.1861 1.74499 14.1942C1.75459 14.2043 1.76658 14.2174 1.77963 14.2335C2.19478 14.6963 2.82613 14.9988 3.54159 14.9988C4.14006 14.9988 4.67636 14.7919 5.08034 14.4479C5.08609 14.443 5.09195 14.4382 5.09791 14.4336C5.11726 14.4113 5.13856 14.3908 5.16156 14.3723C5.30169 14.2593 5.4295 14.1099 5.54056 13.9329L5.54513 13.9256C5.75579 13.6024 5.87492 13.221 5.87492 12.818C5.87492 12.2569 5.6443 11.7419 5.25789 11.3431L5.25645 11.3416C5.19518 11.2778 5.14209 11.2293 5.09388 11.1951C5.08404 11.1881 5.07446 11.1808 5.06516 11.1731C4.65867 10.838 4.13358 10.6373 3.54159 10.6373ZM3.54159 11.3262C3.81773 11.3262 4.04159 11.55 4.04159 11.8262V12.3046H4.597C4.87314 12.3046 5.097 12.5285 5.097 12.8046C5.097 13.0808 4.87314 13.3046 4.597 13.3046H4.04159V13.83C4.04159 14.1062 3.81773 14.33 3.54159 14.33C3.26544 14.33 3.04159 14.1062 3.04159 13.83V13.3046H2.48618C2.21003 13.3046 1.98618 13.0808 1.98618 12.8046C1.98618 12.5285 2.21003 12.3046 2.48618 12.3046H3.04159V11.8262C3.04159 11.55 3.26544 11.3262 3.54159 11.3262Z" fill="#5A5D5A"/>
</svg>
