<svg width="16" height="16" viewBox="0 0 16 16" fill="none" xmlns="http://www.w3.org/2000/svg">
<path fill-rule="evenodd" clip-rule="evenodd" d="M8.00004 1.83337C4.59428 1.83337 1.83337 4.59428 1.83337 8.00004C1.83337 9.51577 2.38022 10.9038 3.28739 11.9775C3.52893 11.5247 3.91269 11.1182 4.40757 10.7852L4.41005 10.7835L4.41006 10.7835C5.42243 10.1111 6.72764 9.79004 8.00504 9.79004C9.28228 9.79004 10.585 10.111 11.5914 10.7845L11.5925 10.7852C12.0874 11.1182 12.4711 11.5247 12.7127 11.9775C13.6199 10.9038 14.1667 9.51577 14.1667 8.00004C14.1667 4.59428 11.4058 1.83337 8.00004 1.83337ZM9.07538 15.0866C12.5233 14.5678 15.1667 11.5926 15.1667 8.00004C15.1667 4.042 11.9581 0.833374 8.00004 0.833374C4.042 0.833374 0.833374 4.042 0.833374 8.00004C0.833374 11.9581 4.042 15.1667 8.00004 15.1667C8.36568 15.1667 8.72475 15.1394 9.07538 15.0866ZM11.9478 12.7334C11.8359 12.3571 11.5487 11.9612 11.0348 11.6152C10.228 11.0756 9.13089 10.79 8.00504 10.79C6.87968 10.79 5.77875 11.0754 4.96458 11.6157C4.45113 11.9615 4.16413 12.3573 4.05229 12.7334C4.70723 13.2818 5.47514 13.6956 6.317 13.9342C6.85199 14.0857 7.41655 14.1667 8.00004 14.1667C8.58353 14.1667 9.14809 14.0857 9.68308 13.9342C10.5249 13.6956 11.2928 13.2818 11.9478 12.7334ZM8.00004 4.65337C7.06384 4.65337 6.31337 5.40852 6.31337 6.34004C6.31337 7.23923 7.01579 7.97238 7.9058 8.01898C7.96712 8.01397 8.0325 8.01352 8.096 8.01889C8.98221 7.97153 9.68091 7.2412 9.68671 6.33858C9.68592 5.40873 8.93008 4.65337 8.00004 4.65337ZM5.31337 6.34004C5.31337 4.85823 6.50957 3.65337 8.00004 3.65337C9.48285 3.65337 10.6867 4.85723 10.6867 6.34004V6.34287H10.6867C10.6785 7.78844 9.5415 8.97051 8.09708 9.01975C8.06775 9.02075 8.03838 9.01917 8.00933 9.01501C8.0122 9.01542 8.01276 9.01539 8.01092 9.01527C8.0092 9.01516 8.00633 9.01504 8.00254 9.01504C7.99435 9.01504 7.98678 9.01559 7.98206 9.01618C7.95584 9.01946 7.92941 9.02065 7.90301 9.01975C6.46111 8.97059 5.31337 7.79035 5.31337 6.34004Z" fill="white"/>
</svg>
