<svg width="14" height="16" viewBox="0 0 14 16" fill="none" xmlns="http://www.w3.org/2000/svg">
<path fill-rule="evenodd" clip-rule="evenodd" d="M1.16236 1.51609C1.71283 1.00762 2.46874 0.833374 3.39329 0.833374H5.42662C5.42995 0.833374 5.43327 0.833407 5.43659 0.833473C5.43993 0.833407 5.44327 0.833374 5.44662 0.833374H10.5666C11.4912 0.833374 12.2471 1.00762 12.7976 1.51609C13.3414 2.01846 13.5902 2.76143 13.7152 3.6648C13.7161 3.67076 13.7168 3.67674 13.7174 3.68273L13.9042 5.5172C13.9716 6.19452 13.8018 6.82306 13.4627 7.32679C13.4782 7.37508 13.4866 7.42658 13.4866 7.48004V10.4734C13.4866 12.0196 13.1797 13.2324 12.366 14.0461C11.5523 14.8598 10.3395 15.1667 8.79329 15.1667H5.19996C3.65371 15.1667 2.44094 14.8598 1.62724 14.0461C0.81354 13.2324 0.506624 12.0196 0.506624 10.4734V7.48004C0.506624 7.43658 0.51217 7.39441 0.522591 7.35421C0.171143 6.84604 -0.00615402 6.20707 0.0623825 5.51752C0.0623932 5.51742 0.0623718 5.51763 0.0623825 5.51752L0.24235 3.68452C0.242997 3.67793 0.243775 3.67135 0.244683 3.6648C0.369765 2.76143 0.618483 2.01846 1.16236 1.51609ZM1.50662 8.20896V10.4734C1.50662 11.9205 1.79971 12.8044 2.33434 13.339C2.82225 13.8269 3.60104 14.1136 4.83329 14.16V13C4.83329 12.3671 4.99085 11.8004 5.39557 11.3957C5.80029 10.9909 6.36698 10.8334 6.99996 10.8334C7.63294 10.8334 8.19963 10.9909 8.60434 11.3957C9.00906 11.8004 9.16663 12.3671 9.16663 13V14.1598C10.395 14.1126 11.1719 13.826 11.6589 13.339C12.1935 12.8044 12.4866 11.9205 12.4866 10.4734V8.19537C12.1094 8.39024 11.6754 8.50004 11.2066 8.50004C10.3638 8.50004 9.57816 8.08023 9.07061 7.43718C8.62476 8.0822 7.87705 8.50004 6.99996 8.50004C6.11209 8.50004 5.3568 8.07186 4.91301 7.41329C4.40753 8.07015 3.61246 8.50004 2.75996 8.50004C2.30221 8.50004 1.87757 8.39534 1.50662 8.20896ZM4.87421 1.83337H3.39329C2.57118 1.83337 2.12042 1.99246 1.84089 2.25066C1.55588 2.51392 1.35175 2.96843 1.23658 3.79227L1.05756 5.61556C0.953411 6.66231 1.71001 7.50004 2.75996 7.50004C3.60437 7.50004 4.38065 6.80035 4.46229 5.95845L4.46243 5.95703L4.87421 1.83337ZM5.49751 5.83611C5.40659 6.76297 6.07674 7.50004 6.99996 7.50004C7.83252 7.50004 8.45927 6.90061 8.50765 6.10314C8.50583 6.08811 8.50415 6.07305 8.50259 6.05795L8.50243 6.05639L8.08073 1.83337H5.89898L5.49751 5.83611C5.4975 5.83627 5.49753 5.83596 5.49751 5.83611ZM9.11179 1.83337L9.49754 5.73755C9.50797 5.84361 9.51214 5.94859 9.51031 6.05173C9.64401 6.8529 10.3951 7.50004 11.2066 7.50004C12.2565 7.50004 13.0131 6.66312 12.9091 5.61652C12.9091 5.61642 12.9091 5.61663 12.9091 5.61652L12.7235 3.79315C12.6083 2.96875 12.4041 2.51402 12.119 2.25066C11.8395 1.99246 11.3887 1.83337 10.5666 1.83337H9.11179ZM8.16663 14.1667V13C8.16663 12.5197 8.04752 12.253 7.89724 12.1028C7.74696 11.9525 7.48031 11.8334 6.99996 11.8334C6.5196 11.8334 6.25296 11.9525 6.10268 12.1028C5.9524 12.253 5.83329 12.5197 5.83329 13V14.1667H8.16663Z" fill="white"/>
</svg>
