<svg width="20" height="22" viewBox="0 0 20 22" fill="#47B200" xmlns="http://www.w3.org/2000/svg">
<path fill-rule="evenodd" clip-rule="evenodd" d="M6 0C6.55228 0 7 0.447715 7 1V1.5H13V1C13 0.447715 13.4477 0 14 0C14.5523 0 15 0.447715 15 1V1.55342C16.4777 1.71775 17.6792 2.26182 18.5453 3.19455C19.5868 4.31619 20 5.84671 20 7.5V16C20 17.6533 19.5868 19.1838 18.5453 20.3055C17.4913 21.4405 15.9406 22 14 22H6C4.0594 22 2.50869 21.4405 1.45471 20.3055C0.413178 19.1838 0 17.6533 0 16V7.5C0 5.84671 0.413178 4.31619 1.45471 3.19455C2.32081 2.26182 3.52234 1.71775 5 1.55342V1C5 0.447715 5.44772 0 6 0ZM5 3.56933C4.01591 3.71635 3.35731 4.08482 2.92029 4.55545C2.39781 5.11812 2.07311 5.95433 2.01094 7.09H17.9891C17.9269 5.95433 17.6022 5.11812 17.0797 4.55545C16.6427 4.08482 15.9841 3.71635 15 3.56933V4C15 4.55228 14.5523 5 14 5C13.4477 5 13 4.55228 13 4V3.5H7V4C7 4.55228 6.55228 5 6 5C5.44772 5 5 4.55228 5 4V3.56933ZM18 9.09H2V16C2 17.3467 2.33682 18.3162 2.92029 18.9445C3.49131 19.5595 4.4406 20 6 20H14C15.5594 20 16.5087 19.5595 17.0797 18.9445C17.6632 18.3162 18 17.3467 18 16V9.09ZM5.29431 12.7C5.29431 12.1477 5.74203 11.7 6.29431 11.7H6.30329C6.85558 11.7 7.30329 12.1477 7.30329 12.7C7.30329 13.2523 6.85558 13.7 6.30329 13.7H6.29431C5.74203 13.7 5.29431 13.2523 5.29431 12.7ZM8.99548 12.7C8.99548 12.1477 9.4432 11.7 9.99548 11.7H10.0045C10.5568 11.7 11.0045 12.1477 11.0045 12.7C11.0045 13.2523 10.5568 13.7 10.0045 13.7H9.99548C9.4432 13.7 8.99548 13.2523 8.99548 12.7ZM12.6947 12.7C12.6947 12.1477 13.1424 11.7 13.6947 11.7H13.7037C14.256 11.7 14.7037 12.1477 14.7037 12.7C14.7037 13.2523 14.256 13.7 13.7037 13.7H13.6947C13.1424 13.7 12.6947 13.2523 12.6947 12.7ZM5.29431 15.7C5.29431 15.1477 5.74203 14.7 6.29431 14.7H6.30329C6.85558 14.7 7.30329 15.1477 7.30329 15.7C7.30329 16.2523 6.85558 16.7 6.30329 16.7H6.29431C5.74203 16.7 5.29431 16.2523 5.29431 15.7ZM8.99548 15.7C8.99548 15.1477 9.4432 14.7 9.99548 14.7H10.0045C10.5568 14.7 11.0045 15.1477 11.0045 15.7C11.0045 16.2523 10.5568 16.7 10.0045 16.7H9.99548C9.4432 16.7 8.99548 16.2523 8.99548 15.7ZM12.6947 15.7C12.6947 15.1477 13.1424 14.7 13.6947 14.7H13.7037C14.256 14.7 14.7037 15.1477 14.7037 15.7C14.7037 16.2523 14.256 16.7 13.7037 16.7H13.6947C13.1424 16.7 12.6947 16.2523 12.6947 15.7Z" fill="#47B200"/>
</svg>
