<svg width="24" height="24" viewBox="0 0 24 24" fill="none" xmlns="http://www.w3.org/2000/svg">
<path d="M20.6201 8.45C19.5701 3.83 15.5401 1.75 12.0001 1.75C12.0001 1.75 12.0001 1.75 11.9901 1.75C8.4601 1.75 4.4201 3.82 3.3701 8.44C2.2001 13.6 5.3601 17.97 8.2201 20.72C9.2801 21.74 10.6401 22.25 12.0001 22.25C13.3601 22.25 14.7201 21.74 15.7701 20.72C18.6301 17.97 21.7901 13.61 20.6201 8.45ZM12.0001 13.46C10.2601 13.46 8.8501 12.05 8.8501 10.31C8.8501 8.57 10.2601 7.16 12.0001 7.16C13.7401 7.16 15.1501 8.57 15.1501 10.31C15.1501 12.05 13.7401 13.46 12.0001 13.46Z" fill="#B61426"/>
<path fill-rule="evenodd" clip-rule="evenodd" d="M12.0268 4.96866C15.355 4.96866 18.0536 7.66225 18.0536 10.9843C18.0536 14.3064 15.355 17 12.0268 17C8.69857 17 6 14.3064 6 10.9843C6 7.66225 8.66856 4.96866 12.0268 4.96866Z" fill="#FEFEFE"/>
<path fill-rule="evenodd" clip-rule="evenodd" d="M16.9577 12.2464C16.4165 14.4296 14.402 16.0745 12.0267 16.0745C9.6514 16.0745 7.63689 14.4595 7.0957 12.2464C10.4933 12.2464 13.5301 12.2464 16.9577 12.2464Z" fill="#B61426"/>
<path fill-rule="evenodd" clip-rule="evenodd" d="M12.0144 5.8941C14.8041 5.8941 17.0839 8.18317 17.0839 10.9843H15.4041C15.4041 9.08674 13.8742 7.55069 11.9844 7.55069C10.0945 7.55069 8.56464 9.08674 8.56464 10.9843H6.88477C6.94478 8.18317 9.19458 5.8941 12.0144 5.8941Z" fill="#B61426"/>
</svg>
