<svg xmlns="http://www.w3.org/2000/svg">
  <symbol id="barCode" viewBox="0 0 22 15">
    <g>
      <path fill-rule="evenodd" clip-rule="evenodd" d="M2.34148 0H0.550049V14.9286H2.34148V0ZM2.93867 0H4.7301V14.9286H2.93867V0ZM7.71578 0H5.3272V14.9286H7.71578V0ZM13.8738 0H9.69384V14.9286H13.8738V0ZM14.8815 0H16.6729V14.9286H14.8815V0ZM21.45 0H18.4643V14.9286H21.45V0Z"/>
    </g>
  </symbol>

  <symbol id="basket" viewBox="0 0 18 18">
    <g>
      <path d="M6.69567 1.01975C6.89066 0.824221 6.89022 0.507639 6.69469 0.312646C6.49916 0.117654 6.18258 0.11809 5.98759 0.313622L6.69567 1.01975ZM2.97092 3.33862C2.77593 3.53415 2.77636 3.85074 2.97189 4.04573C3.16743 4.24072 3.48401 4.24028 3.679 4.04475L2.97092 3.33862ZM12.0123 0.313622C11.8173 0.11809 11.5008 0.117654 11.3052 0.312646C11.1097 0.507639 11.1093 0.824221 11.3043 1.01975L12.0123 0.313622ZM14.3209 4.04475C14.5159 4.24028 14.8325 4.24072 15.028 4.04573C15.2236 3.85074 15.224 3.53415 15.029 3.33862L14.3209 4.04475ZM7.63329 10.6667C7.63329 10.3905 7.40944 10.1667 7.13329 10.1667C6.85715 10.1667 6.63329 10.3905 6.63329 10.6667H7.63329ZM6.63329 13.625C6.63329 13.9012 6.85715 14.125 7.13329 14.125C7.40944 14.125 7.63329 13.9012 7.63329 13.625H6.63329ZM11.4666 10.6667C11.4666 10.3905 11.2428 10.1667 10.9666 10.1667C10.6905 10.1667 10.4666 10.3905 10.4666 10.6667H11.4666ZM10.4666 13.625C10.4666 13.9012 10.6905 14.125 10.9666 14.125C11.2428 14.125 11.4666 13.9012 11.4666 13.625H10.4666ZM2.4101 7.25282C2.36562 6.98028 2.10863 6.7954 1.83609 6.83988C1.56356 6.88436 1.37868 7.14135 1.42315 7.41389L2.4101 7.25282ZM3.09163 14.5334L2.59815 14.6139L2.59829 14.6147L3.09163 14.5334ZM14.6833 14.6334L14.1922 14.5392L14.1922 14.5393L14.6833 14.6334ZM16.5743 7.42753C16.6264 7.15633 16.4487 6.89431 16.1775 6.8423C15.9063 6.79029 15.6443 6.96798 15.5922 7.23918L16.5743 7.42753ZM5.98759 0.313622L2.97092 3.33862L3.679 4.04475L6.69567 1.01975L5.98759 0.313622ZM11.3043 1.01975L14.3209 4.04475L15.029 3.33862L12.0123 0.313622L11.3043 1.01975ZM1.16663 5.54169C1.16663 4.85292 1.34776 4.63791 1.4855 4.54566C1.67703 4.41737 1.98877 4.37502 2.51663 4.37502V3.37502C2.01948 3.37502 1.40622 3.39517 0.929005 3.7148C0.397993 4.07046 0.166626 4.68878 0.166626 5.54169H1.16663ZM2.51663 4.37502H15.4833V3.37502H2.51663V4.37502ZM15.4833 4.37502C16.0111 4.37502 16.3229 4.41737 16.5144 4.54566C16.6522 4.63791 16.8333 4.85292 16.8333 5.54169H17.8333C17.8333 4.68878 17.6019 4.07046 17.0709 3.7148C16.5937 3.39517 15.9804 3.37502 15.4833 3.37502V4.37502ZM16.8333 5.54169C16.8333 6.39198 16.6341 6.56116 16.543 6.61369C16.4706 6.6554 16.3585 6.68725 16.1681 6.70124C15.971 6.71572 15.7631 6.70835 15.4833 6.70835V7.70835C15.716 7.70835 15.9955 7.71661 16.2414 7.69855C16.4941 7.67998 16.7803 7.6311 17.0423 7.4801C17.6199 7.14721 17.8333 6.48306 17.8333 5.54169H16.8333ZM15.4833 6.70835H2.51663V7.70835H15.4833V6.70835ZM2.51663 6.70835C2.23681 6.70835 2.02888 6.71572 1.83179 6.70124C1.64146 6.68725 1.52929 6.6554 1.45692 6.61369C1.36577 6.56116 1.16663 6.39198 1.16663 5.54169H0.166626C0.166626 6.48306 0.379978 7.14721 0.957584 7.4801C1.21959 7.6311 1.50586 7.67998 1.7585 7.69855C2.00437 7.71661 2.28394 7.70835 2.51663 7.70835V6.70835ZM6.63329 10.6667V13.625H7.63329V10.6667H6.63329ZM10.4666 10.6667V13.625H11.4666V10.6667H10.4666ZM1.42315 7.41389L2.59815 14.6139L3.5851 14.4528L2.4101 7.25282L1.42315 7.41389ZM2.59829 14.6147C2.73651 15.4527 2.98504 16.2804 3.58793 16.8909C4.20492 17.5158 5.11041 17.8334 6.38329 17.8334V16.8334C5.27284 16.8334 4.66583 16.5593 4.29949 16.1883C3.91905 15.803 3.71341 15.2307 3.58496 14.452L2.59829 14.6147ZM6.38329 17.8334H11.4083V16.8334H6.38329V17.8334ZM11.4083 17.8334C12.7668 17.8334 13.6741 17.5372 14.2669 16.9161C14.8383 16.3174 15.0265 15.4998 15.1744 14.7274L14.1922 14.5393C14.0401 15.3335 13.8867 15.866 13.5435 16.2257C13.2216 16.5629 12.6414 16.8334 11.4083 16.8334V17.8334ZM15.1743 14.7275L16.5743 7.42753L15.5922 7.23918L14.1922 14.5392L15.1743 14.7275Z"/>
    </g>
  </symbol>

  <symbol id="plus" viewBox="0 0 6 6">
    <g>
      <path d="M2.124 5.4V0H3.408V5.4H2.124ZM0 3.3V2.1H5.532V3.3H0Z"/>
    </g>
  </symbol>

  <symbol id="minus" viewBox="0 0 4 2">
    <g>
      <path d="M0 1.456V0H3.85V1.456H0Z"/>
    </g>
  </symbol>

  <symbol id="main" viewBox="0 0 17 17">
    <g>
      <path fill-rule="evenodd" clip-rule="evenodd" d="M8.5 0C13.194 0 17 3.79896 17 8.48433C17 13.1697 13.194 16.9687 8.5 16.9687C3.80598 16.9687 0 13.1697 0 8.48433C0 3.79896 3.76366 0 8.5 0Z"/>
      <path fill-rule="evenodd" clip-rule="evenodd" d="M15.4546 10.2643C14.6913 13.3434 11.8501 15.6634 8.50002 15.6634C5.14995 15.6634 2.30875 13.3856 1.54547 10.2643C6.33733 10.2643 10.6203 10.2643 15.4546 10.2643Z" fill="#B61426"/>
      <path fill-rule="evenodd" clip-rule="evenodd" d="M8.48286 1.30522C12.4175 1.30522 15.6328 4.53366 15.6328 8.48427H13.2636C13.2636 5.80803 11.1059 3.64161 8.44054 3.64161C5.77516 3.64161 3.61747 5.80803 3.61747 8.48427H1.24823C1.33287 4.53366 4.50593 1.30522 8.48286 1.30522Z" fill="#B61426"/>
    </g>
  </symbol>

  <symbol id="catalog" viewBox="0 0 16 16">
    <g>
      <path fill-rule="evenodd" clip-rule="evenodd" d="M1.47982 1.47982C1.93999 1.01965 2.58964 0.833374 3.33337 0.833374H4.66671C5.41045 0.833374 6.06009 1.01965 6.52026 1.47982C6.98043 1.93999 7.16671 2.58964 7.16671 3.33337V4.66671C7.16671 5.41045 6.98043 6.06009 6.52026 6.52026C6.06009 6.98043 5.41045 7.16671 4.66671 7.16671H3.33337C2.58964 7.16671 1.93999 6.98043 1.47982 6.52026C1.01965 6.06009 0.833374 5.41045 0.833374 4.66671V3.33337C0.833374 2.58964 1.01965 1.93999 1.47982 1.47982ZM2.18693 2.18693C1.98043 2.39342 1.83337 2.74378 1.83337 3.33337V4.66671C1.83337 5.2563 1.98043 5.60666 2.18693 5.81315C2.39342 6.01965 2.74378 6.16671 3.33337 6.16671H4.66671C5.2563 6.16671 5.60666 6.01965 5.81315 5.81315C6.01965 5.60666 6.16671 5.2563 6.16671 4.66671V3.33337C6.16671 2.74378 6.01965 2.39342 5.81315 2.18693C5.60666 1.98043 5.2563 1.83337 4.66671 1.83337H3.33337C2.74378 1.83337 2.39342 1.98043 2.18693 2.18693ZM9.47982 1.47982C9.93999 1.01965 10.5896 0.833374 11.3334 0.833374H12.6667C13.4104 0.833374 14.0601 1.01965 14.5203 1.47982C14.9804 1.93999 15.1667 2.58963 15.1667 3.33337V4.66671C15.1667 5.41045 14.9804 6.06009 14.5203 6.52026C14.0601 6.98043 13.4104 7.16671 12.6667 7.16671H11.3334C10.5896 7.16671 9.93999 6.98043 9.47982 6.52026C9.01965 6.06009 8.83337 5.41045 8.83337 4.66671V3.33337C8.83337 2.58963 9.01965 1.93999 9.47982 1.47982ZM10.1869 2.18693C9.98043 2.39342 9.83337 2.74378 9.83337 3.33337V4.66671C9.83337 5.2563 9.98043 5.60666 10.1869 5.81315C10.3934 6.01965 10.7438 6.16671 11.3334 6.16671H12.6667C13.2563 6.16671 13.6067 6.01965 13.8132 5.81315C14.0196 5.60666 14.1667 5.2563 14.1667 4.66671V3.33337C14.1667 2.74378 14.0196 2.39342 13.8132 2.18693C13.6067 1.98043 13.2563 1.83337 12.6667 1.83337H11.3334C10.7438 1.83337 10.3934 1.98043 10.1869 2.18693ZM1.47982 9.47982C1.93999 9.01965 2.58963 8.83337 3.33337 8.83337H4.66671C5.41045 8.83337 6.06009 9.01965 6.52026 9.47982C6.98043 9.93999 7.16671 10.5896 7.16671 11.3334V12.6667C7.16671 13.4104 6.98043 14.0601 6.52026 14.5203C6.06009 14.9804 5.41045 15.1667 4.66671 15.1667H3.33337C2.58963 15.1667 1.93999 14.9804 1.47982 14.5203C1.01965 14.0601 0.833374 13.4104 0.833374 12.6667V11.3334C0.833374 10.5896 1.01965 9.93999 1.47982 9.47982ZM2.18693 10.1869C1.98043 10.3934 1.83337 10.7438 1.83337 11.3334V12.6667C1.83337 13.2563 1.98043 13.6067 2.18693 13.8132C2.39342 14.0196 2.74378 14.1667 3.33337 14.1667H4.66671C5.2563 14.1667 5.60666 14.0196 5.81315 13.8132C6.01965 13.6067 6.16671 13.2563 6.16671 12.6667V11.3334C6.16671 10.7438 6.01965 10.3934 5.81315 10.1869C5.60666 9.98043 5.2563 9.83337 4.66671 9.83337H3.33337C2.74378 9.83337 2.39342 9.98043 2.18693 10.1869ZM9.47982 9.47982C9.93999 9.01965 10.5896 8.83337 11.3334 8.83337H12.6667C13.4104 8.83337 14.0601 9.01965 14.5203 9.47982C14.9804 9.93999 15.1667 10.5896 15.1667 11.3334V12.6667C15.1667 13.4104 14.9804 14.0601 14.5203 14.5203C14.0601 14.9804 13.4104 15.1667 12.6667 15.1667H11.3334C10.5896 15.1667 9.93999 14.9804 9.47982 14.5203C9.01965 14.0601 8.83337 13.4104 8.83337 12.6667V11.3334C8.83337 10.5896 9.01965 9.93999 9.47982 9.47982ZM10.1869 10.1869C9.98043 10.3934 9.83337 10.7438 9.83337 11.3334V12.6667C9.83337 13.2563 9.98043 13.6067 10.1869 13.8132C10.3934 14.0196 10.7438 14.1667 11.3334 14.1667H12.6667C13.2563 14.1667 13.6067 14.0196 13.8132 13.8132C14.0196 13.6067 14.1667 13.2563 14.1667 12.6667V11.3334C14.1667 10.7438 14.0196 10.3934 13.8132 10.1869C13.6067 9.98043 13.2563 9.83337 12.6667 9.83337H11.3334C10.7438 9.83337 10.3934 9.98043 10.1869 10.1869Z"/>
    </g>
  </symbol>

  <symbol id="bag" viewBox="0 0 14 16">
    <g>
      <path fill-rule="evenodd" clip-rule="evenodd" d="M9.4999 4.34007C9.4999 2.87784 8.24358 1.70664 6.75485 1.85107L6.75303 1.85124C5.53873 1.96458 4.4999 3.19504 4.4999 4.46674V5.11341C4.4999 5.38955 4.27604 5.61341 3.9999 5.61341C3.72376 5.61341 3.4999 5.38955 3.4999 5.11341V4.46674C3.4999 2.73874 4.87394 1.02282 6.65919 0.855656C8.7434 0.653984 10.4999 2.29594 10.4999 4.34007V5.26007C10.4999 5.53622 10.276 5.76007 9.9999 5.76007C9.72376 5.76007 9.4999 5.53622 9.4999 5.26007V4.34007Z"/>
      <path fill-rule="evenodd" clip-rule="evenodd" d="M1.24893 5.87823C1.8392 5.17646 2.85121 4.83341 4.33323 4.83341H9.66657C11.1486 4.83341 12.1606 5.17646 12.7509 5.87823C13.3364 6.57434 13.3912 7.48922 13.2969 8.34173L13.2961 8.34877L12.7966 12.3445C12.7229 13.0286 12.5503 13.778 11.9396 14.3359C11.3322 14.8908 10.3911 15.1667 8.9999 15.1667H4.9999C3.60867 15.1667 2.66759 14.8908 2.06016 14.3359C1.44953 13.778 1.27693 13.0286 1.20322 12.3445L0.702884 8.34174C0.608549 7.48922 0.663412 6.57434 1.24893 5.87823ZM1.69649 8.2283L2.19713 12.2335C2.2637 12.8547 2.4016 13.2933 2.73464 13.5976C3.07221 13.906 3.71113 14.1667 4.9999 14.1667H8.9999C10.2887 14.1667 10.9276 13.906 11.2652 13.5976C11.5982 13.2933 11.7362 12.8548 11.8027 12.2335L11.8037 12.2247L12.3033 8.22831C12.3883 7.45593 12.2996 6.89526 11.9856 6.52192C11.6759 6.15369 11.0312 5.83341 9.66657 5.83341H4.33323C2.96859 5.83341 2.32393 6.15369 2.01421 6.52192C1.70019 6.89525 1.61147 7.45593 1.69649 8.2283Z"/>
      <path fill-rule="evenodd" clip-rule="evenodd" d="M8.33022 8.00007C8.33022 7.44779 8.77794 7.00007 9.33022 7.00007H9.33621C9.8885 7.00007 10.3362 7.44779 10.3362 8.00007C10.3362 8.55236 9.8885 9.00007 9.33621 9.00007H9.33022C8.77794 9.00007 8.33022 8.55236 8.33022 8.00007Z"/>
      <path fill-rule="evenodd" clip-rule="evenodd" d="M3.66291 8.00007C3.66291 7.44779 4.11062 7.00007 4.66291 7.00007H4.66889C5.22118 7.00007 5.66889 7.44779 5.66889 8.00007C5.66889 8.55236 5.22118 9.00007 4.66889 9.00007H4.66291C4.11062 9.00007 3.66291 8.55236 3.66291 8.00007Z"/>
    </g>
  </symbol>

  <symbol id="shop" viewBox="0 0 14 16">
    <g>
      <path fill-rule="evenodd" clip-rule="evenodd" d="M1.16236 1.51609C1.71283 1.00762 2.46874 0.833374 3.39329 0.833374H5.42662C5.42995 0.833374 5.43327 0.833407 5.43659 0.833473C5.43993 0.833407 5.44327 0.833374 5.44662 0.833374H10.5666C11.4912 0.833374 12.2471 1.00762 12.7976 1.51609C13.3414 2.01846 13.5902 2.76143 13.7152 3.6648C13.7161 3.67076 13.7168 3.67674 13.7174 3.68273L13.9042 5.5172C13.9716 6.19452 13.8018 6.82306 13.4627 7.32679C13.4782 7.37508 13.4866 7.42658 13.4866 7.48004V10.4734C13.4866 12.0196 13.1797 13.2324 12.366 14.0461C11.5523 14.8598 10.3395 15.1667 8.79329 15.1667H5.19996C3.65371 15.1667 2.44094 14.8598 1.62724 14.0461C0.81354 13.2324 0.506624 12.0196 0.506624 10.4734V7.48004C0.506624 7.43658 0.51217 7.39441 0.522591 7.35421C0.171143 6.84604 -0.00615402 6.20707 0.0623825 5.51752C0.0623932 5.51742 0.0623718 5.51763 0.0623825 5.51752L0.24235 3.68452C0.242997 3.67793 0.243775 3.67135 0.244683 3.6648C0.369765 2.76143 0.618483 2.01846 1.16236 1.51609ZM1.50662 8.20896V10.4734C1.50662 11.9205 1.79971 12.8044 2.33434 13.339C2.82225 13.8269 3.60104 14.1136 4.83329 14.16V13C4.83329 12.3671 4.99085 11.8004 5.39557 11.3957C5.80029 10.9909 6.36698 10.8334 6.99996 10.8334C7.63294 10.8334 8.19963 10.9909 8.60434 11.3957C9.00906 11.8004 9.16663 12.3671 9.16663 13V14.1598C10.395 14.1126 11.1719 13.826 11.6589 13.339C12.1935 12.8044 12.4866 11.9205 12.4866 10.4734V8.19537C12.1094 8.39024 11.6754 8.50004 11.2066 8.50004C10.3638 8.50004 9.57816 8.08023 9.07061 7.43718C8.62476 8.0822 7.87705 8.50004 6.99996 8.50004C6.11209 8.50004 5.3568 8.07186 4.91301 7.41329C4.40753 8.07015 3.61246 8.50004 2.75996 8.50004C2.30221 8.50004 1.87757 8.39534 1.50662 8.20896ZM4.87421 1.83337H3.39329C2.57118 1.83337 2.12042 1.99246 1.84089 2.25066C1.55588 2.51392 1.35175 2.96843 1.23658 3.79227L1.05756 5.61556C0.953411 6.66231 1.71001 7.50004 2.75996 7.50004C3.60437 7.50004 4.38065 6.80035 4.46229 5.95845L4.46243 5.95703L4.87421 1.83337ZM5.49751 5.83611C5.40659 6.76297 6.07674 7.50004 6.99996 7.50004C7.83252 7.50004 8.45927 6.90061 8.50765 6.10314C8.50583 6.08811 8.50415 6.07305 8.50259 6.05795L8.50243 6.05639L8.08073 1.83337H5.89898L5.49751 5.83611C5.4975 5.83627 5.49753 5.83596 5.49751 5.83611ZM9.11179 1.83337L9.49754 5.73755C9.50797 5.84361 9.51214 5.94859 9.51031 6.05173C9.64401 6.8529 10.3951 7.50004 11.2066 7.50004C12.2565 7.50004 13.0131 6.66312 12.9091 5.61652C12.9091 5.61642 12.9091 5.61663 12.9091 5.61652L12.7235 3.79315C12.6083 2.96875 12.4041 2.51402 12.119 2.25066C11.8395 1.99246 11.3887 1.83337 10.5666 1.83337H9.11179ZM8.16663 14.1667V13C8.16663 12.5197 8.04752 12.253 7.89724 12.1028C7.74696 11.9525 7.48031 11.8334 6.99996 11.8334C6.5196 11.8334 6.25296 11.9525 6.10268 12.1028C5.9524 12.253 5.83329 12.5197 5.83329 13V14.1667H8.16663Z"/>
    </g>
  </symbol>

  <symbol id="profile" viewBox="0 0 16 16">
    <g>
      <path fill-rule="evenodd" clip-rule="evenodd" d="M8.00004 1.83337C4.59428 1.83337 1.83337 4.59428 1.83337 8.00004C1.83337 9.51577 2.38022 10.9038 3.28739 11.9775C3.52893 11.5247 3.91269 11.1182 4.40757 10.7852L4.41005 10.7835L4.41006 10.7835C5.42243 10.1111 6.72764 9.79004 8.00504 9.79004C9.28228 9.79004 10.585 10.111 11.5914 10.7845L11.5925 10.7852C12.0874 11.1182 12.4711 11.5247 12.7127 11.9775C13.6199 10.9038 14.1667 9.51577 14.1667 8.00004C14.1667 4.59428 11.4058 1.83337 8.00004 1.83337ZM9.07538 15.0866C12.5233 14.5678 15.1667 11.5926 15.1667 8.00004C15.1667 4.042 11.9581 0.833374 8.00004 0.833374C4.042 0.833374 0.833374 4.042 0.833374 8.00004C0.833374 11.9581 4.042 15.1667 8.00004 15.1667C8.36568 15.1667 8.72475 15.1394 9.07538 15.0866ZM11.9478 12.7334C11.8359 12.3571 11.5487 11.9612 11.0348 11.6152C10.228 11.0756 9.13089 10.79 8.00504 10.79C6.87968 10.79 5.77875 11.0754 4.96458 11.6157C4.45113 11.9615 4.16413 12.3573 4.05229 12.7334C4.70723 13.2818 5.47514 13.6956 6.317 13.9342C6.85199 14.0857 7.41655 14.1667 8.00004 14.1667C8.58353 14.1667 9.14809 14.0857 9.68308 13.9342C10.5249 13.6956 11.2928 13.2818 11.9478 12.7334ZM8.00004 4.65337C7.06384 4.65337 6.31337 5.40852 6.31337 6.34004C6.31337 7.23923 7.01579 7.97238 7.9058 8.01898C7.96712 8.01397 8.0325 8.01352 8.096 8.01889C8.98221 7.97153 9.68091 7.2412 9.68671 6.33858C9.68592 5.40873 8.93008 4.65337 8.00004 4.65337ZM5.31337 6.34004C5.31337 4.85823 6.50957 3.65337 8.00004 3.65337C9.48285 3.65337 10.6867 4.85723 10.6867 6.34004V6.34287H10.6867C10.6785 7.78844 9.5415 8.97051 8.09708 9.01975C8.06775 9.02075 8.03838 9.01917 8.00933 9.01501C8.0122 9.01542 8.01276 9.01539 8.01092 9.01527C8.0092 9.01516 8.00633 9.01504 8.00254 9.01504C7.99435 9.01504 7.98678 9.01559 7.98206 9.01618C7.95584 9.01946 7.92941 9.02065 7.90301 9.01975C6.46111 8.97059 5.31337 7.79035 5.31337 6.34004Z"/>
    </g>
  </symbol>

  <symbol id="arrowLeft" viewBox="0 0 20 14">
    <g>
      <path fill-rule="evenodd" clip-rule="evenodd" d="M8.10033 0.399663C8.39322 0.692556 8.39322 1.16743 8.10033 1.46032L3.31066 6.24999H18.5C18.9142 6.24999 19.25 6.58578 19.25 6.99999C19.25 7.41421 18.9142 7.74999 18.5 7.74999H3.31066L8.10033 12.5397C8.39322 12.8326 8.39322 13.3074 8.10033 13.6003C7.80744 13.8932 7.33256 13.8932 7.03967 13.6003L0.96967 7.53032C0.829018 7.38967 0.75 7.19891 0.75 6.99999C0.75 6.80108 0.829018 6.61031 0.96967 6.46966L7.03967 0.399663C7.33256 0.106769 7.80744 0.106769 8.10033 0.399663Z" fill="#3B3230"/>
    </g>
  </symbol>

  <symbol id="wallet" viewBox="0 0 21 21" fill="none">
    <g>
      <path d="M9.4597 14.5503V16.242C9.4597 17.6753 8.12636 18.8336 6.48469 18.8336C4.84302 18.8336 3.50134 17.6753 3.50134 16.242V14.5503C3.50134 15.9836 4.83469 17.0003 6.48469 17.0003C8.12636 17.0003 9.4597 15.9753 9.4597 14.5503Z" stroke="#47B200" stroke-linecap="round" stroke-linejoin="round"/>
      <path d="M9.45834 12.2584C9.45834 12.675 9.34167 13.0583 9.14167 13.3917C8.65001 14.2 7.64166 14.7084 6.475 14.7084C5.30833 14.7084 4.29999 14.1917 3.80832 13.3917C3.60832 13.0583 3.4917 12.675 3.4917 12.2584C3.4917 11.5417 3.82501 10.9 4.35835 10.4334C4.90001 9.95836 5.64165 9.67505 6.46665 9.67505C7.29165 9.67505 8.03335 9.96669 8.57501 10.4334C9.12501 10.8917 9.45834 11.5417 9.45834 12.2584Z" stroke="#47B200" stroke-linecap="round" stroke-linejoin="round"/>
      <path d="M9.4597 12.2583V14.5499C9.4597 15.9833 8.12636 16.9999 6.48469 16.9999C4.84302 16.9999 3.50134 15.9749 3.50134 14.5499V12.2583C3.50134 10.8249 4.83469 9.66663 6.48469 9.66663C7.30969 9.66663 8.05138 9.95827 8.59305 10.4249C9.12638 10.8916 9.4597 11.5416 9.4597 12.2583Z" stroke="#47B200" stroke-linecap="round" stroke-linejoin="round"/>
      <path d="M18.8333 9.64159V11.3583C18.8333 11.8166 18.4667 12.1916 18 12.2083H16.3667C15.4667 12.2083 14.6417 11.5499 14.5667 10.6499C14.5167 10.1249 14.7167 9.63327 15.0667 9.29161C15.375 8.97494 15.8 8.79163 16.2667 8.79163H18C18.4667 8.80829 18.8333 9.18326 18.8333 9.64159Z" stroke="#47B200" stroke-linecap="round" stroke-linejoin="round"/>
      <path d="M2.16663 9.24996V7.58329C2.16663 5.31663 3.53329 3.73329 5.65829 3.46662C5.87496 3.43329 6.09996 3.41663 6.33329 3.41663H13.8333C14.05 3.41663 14.2583 3.42495 14.4583 3.45828C16.6083 3.70828 18 5.29996 18 7.58329V8.79164H16.2666C15.7999 8.79164 15.3749 8.97495 15.0666 9.29162C14.7166 9.63328 14.5166 10.125 14.5666 10.65C14.6416 11.55 15.4666 12.2083 16.3666 12.2083H18V13.4166C18 15.9166 16.3333 17.5833 13.8333 17.5833H11.75" stroke="#47B200" stroke-linecap="round" stroke-linejoin="round"/>
    </g>
  </symbol>

  <symbol id="i" viewBox="0 0 5 12">
    <g>
      <path d="M1.498 3.486H3.668L2.17 11.018H0L1.498 3.486ZM2.954 2.436C2.58067 2.436 2.27267 2.32867 2.03 2.114C1.79667 1.89 1.68 1.61933 1.68 1.302C1.68 0.928667 1.81067 0.620667 2.072 0.378C2.34267 0.126 2.69267 0 3.122 0C3.50467 0 3.81267 0.107333 4.046 0.322C4.28867 0.527333 4.41 0.784 4.41 1.092C4.41 1.49333 4.27467 1.82 4.004 2.072C3.73333 2.31467 3.38333 2.436 2.954 2.436Z" fill="#FDF9F9"/>
    </g>
  </symbol>

  <symbol id="location" viewBox="0 0 14 16">
    <g>
      <path fill-rule="evenodd" clip-rule="evenodd" d="M7.00205 1.83334C4.72419 1.83181 2.49625 3.1536 1.90081 5.77074C1.19621 8.88403 3.12514 11.5839 4.93978 13.3329C6.09344 14.4407 7.90694 14.4394 9.05266 13.3336L9.05357 13.3327C10.8749 11.5837 12.8037 8.8903 12.0989 5.77707L12.0989 5.77705C11.5065 3.15981 9.28002 1.83488 7.00205 1.83334ZM13.0742 5.55631C12.3599 2.40021 9.65643 0.835139 7.00273 0.833345C4.34897 0.831551 1.64363 2.39303 0.92568 5.5491L0.925563 5.54962C0.097095 9.20929 2.38108 12.2558 4.24625 14.0534L4.24688 14.054C5.78643 15.5325 8.21249 15.5339 9.74672 14.0535C11.6187 12.2557 13.9027 9.21607 13.0742 5.55631ZM9.18678 5.64646C9.38204 5.84172 9.38204 6.1583 9.18678 6.35356L6.52011 9.02023C6.32485 9.21549 6.00827 9.21549 5.813 9.02023L4.813 8.02023C4.61774 7.82497 4.61774 7.50839 4.813 7.31312C5.00827 7.11786 5.32485 7.11786 5.52011 7.31312L6.16656 7.95957L8.47967 5.64646C8.67493 5.4512 8.99152 5.4512 9.18678 5.64646Z"/>
    </g>
  </symbol>

  <symbol id="search" viewBox="0 0 24 24">
    <g>
      <path fill-rule="evenodd" clip-rule="evenodd" d="M9.90024 1.79997C5.42674 1.79997 1.80024 5.42646 1.80024 9.89997C1.80024 14.3735 5.42674 18 9.90024 18C14.3738 18 18.0002 14.3735 18.0002 9.89997C18.0002 5.42646 14.3738 1.79997 9.90024 1.79997ZM0.000244141 9.89997C0.000244141 4.43235 4.43262 -3.05176e-05 9.90024 -3.05176e-05C15.3679 -3.05176e-05 19.8002 4.43235 19.8002 9.89997C19.8002 12.3098 18.9392 14.5185 17.5081 16.2352L23.5005 22.2276C23.8519 22.579 23.8519 23.1489 23.5005 23.5004C23.149 23.8518 22.5791 23.8518 22.2277 23.5004L16.2353 17.508C14.5186 18.939 12.3099 19.8 9.90024 19.8C4.43262 19.8 0.000244141 15.3676 0.000244141 9.89997Z"/>
    </g>
  </symbol>

  <symbol id="selected" viewBox="0 0 14 11">
    <g>
      <path fill-rule="evenodd" clip-rule="evenodd" d="M13.7071 0.292893C14.0976 0.683417 14.0976 1.31658 13.7071 1.70711L4.70711 10.7071C4.31658 11.0976 3.68342 11.0976 3.29289 10.7071L0.292893 7.70711C-0.0976311 7.31658 -0.0976311 6.68342 0.292893 6.29289C0.683417 5.90237 1.31658 5.90237 1.70711 6.29289L4 8.58579L12.2929 0.292893C12.6834 -0.0976311 13.3166 -0.0976311 13.7071 0.292893Z"/>
    </g>
  </symbol>

  <symbol id="calendar" viewBox="0 0 20 22">
    <g>
      <path fill-rule="evenodd" clip-rule="evenodd" d="M6 0C6.55228 0 7 0.447715 7 1V1.5H13V1C13 0.447715 13.4477 0 14 0C14.5523 0 15 0.447715 15 1V1.55342C16.4777 1.71775 17.6792 2.26182 18.5453 3.19455C19.5868 4.31619 20 5.84671 20 7.5V16C20 17.6533 19.5868 19.1838 18.5453 20.3055C17.4913 21.4405 15.9406 22 14 22H6C4.0594 22 2.50869 21.4405 1.45471 20.3055C0.413178 19.1838 0 17.6533 0 16V7.5C0 5.84671 0.413178 4.31619 1.45471 3.19455C2.32081 2.26182 3.52234 1.71775 5 1.55342V1C5 0.447715 5.44772 0 6 0ZM5 3.56933C4.01591 3.71635 3.35731 4.08482 2.92029 4.55545C2.39781 5.11812 2.07311 5.95433 2.01094 7.09H17.9891C17.9269 5.95433 17.6022 5.11812 17.0797 4.55545C16.6427 4.08482 15.9841 3.71635 15 3.56933V4C15 4.55228 14.5523 5 14 5C13.4477 5 13 4.55228 13 4V3.5H7V4C7 4.55228 6.55228 5 6 5C5.44772 5 5 4.55228 5 4V3.56933ZM18 9.09H2V16C2 17.3467 2.33682 18.3162 2.92029 18.9445C3.49131 19.5595 4.4406 20 6 20H14C15.5594 20 16.5087 19.5595 17.0797 18.9445C17.6632 18.3162 18 17.3467 18 16V9.09ZM5.29431 12.7C5.29431 12.1477 5.74203 11.7 6.29431 11.7H6.30329C6.85558 11.7 7.30329 12.1477 7.30329 12.7C7.30329 13.2523 6.85558 13.7 6.30329 13.7H6.29431C5.74203 13.7 5.29431 13.2523 5.29431 12.7ZM8.99548 12.7C8.99548 12.1477 9.4432 11.7 9.99548 11.7H10.0045C10.5568 11.7 11.0045 12.1477 11.0045 12.7C11.0045 13.2523 10.5568 13.7 10.0045 13.7H9.99548C9.4432 13.7 8.99548 13.2523 8.99548 12.7ZM12.6947 12.7C12.6947 12.1477 13.1424 11.7 13.6947 11.7H13.7037C14.256 11.7 14.7037 12.1477 14.7037 12.7C14.7037 13.2523 14.256 13.7 13.7037 13.7H13.6947C13.1424 13.7 12.6947 13.2523 12.6947 12.7ZM5.29431 15.7C5.29431 15.1477 5.74203 14.7 6.29431 14.7H6.30329C6.85558 14.7 7.30329 15.1477 7.30329 15.7C7.30329 16.2523 6.85558 16.7 6.30329 16.7H6.29431C5.74203 16.7 5.29431 16.2523 5.29431 15.7ZM8.99548 15.7C8.99548 15.1477 9.4432 14.7 9.99548 14.7H10.0045C10.5568 14.7 11.0045 15.1477 11.0045 15.7C11.0045 16.2523 10.5568 16.7 10.0045 16.7H9.99548C9.4432 16.7 8.99548 16.2523 8.99548 15.7ZM12.6947 15.7C12.6947 15.1477 13.1424 14.7 13.6947 14.7H13.7037C14.256 14.7 14.7037 15.1477 14.7037 15.7C14.7037 16.2523 14.256 16.7 13.7037 16.7H13.6947C13.1424 16.7 12.6947 16.2523 12.6947 15.7Z"/>
    </g>
  </symbol>

  <symbol id="pin" viewBox="0 0 21 24" fill="none">
    <g>
      <path d="M14.3909 6.23462L5.09086 15.6909C4.78297 16.0307 4.61755 16.4759 4.62883 16.9343C4.64012 17.3927 4.82725 17.8292 5.15149 18.1534C5.47573 18.4777 5.91224 18.6648 6.37064 18.6761C6.82904 18.6874 7.27423 18.522 7.61403 18.2141L18.7003 6.97147C19.3161 6.29187 19.647 5.40149 19.6244 4.48469C19.6018 3.56789 19.2275 2.69487 18.5791 2.0464C17.9306 1.39792 17.0576 1.02366 16.1408 1.00108C15.224 0.978511 14.3336 1.30936 13.654 1.92514L2.56769 13.1677C1.56392 14.1715 1 15.5329 1 16.9525C1 18.3721 1.56392 19.7335 2.56769 20.7372C3.57147 21.741 4.93289 22.3049 6.35245 22.3049C7.772 22.3049 9.13342 21.741 10.1372 20.7372L19.3032 11.5936" stroke="#5A5D5A" stroke-width="1.5" stroke-linecap="round" stroke-linejoin="round"/>
    </g>
  </symbol>

  <symbol id="personallyGray" width="16" height="16" viewBox="0 0 16 16" fill="none">
    <g>
      <path d="M14.8813 7.60396V10.6131C14.8813 13.6222 13.6134 14.8286 10.4259 14.8286H6.60797C6.19714 14.8286 5.82169 14.8085 5.47461 14.7616" stroke="#5A5D5A" stroke-linecap="round" stroke-linejoin="round"/>
      <path d="M2.15332 10.4858V7.60396" stroke="#5A5D5A" stroke-linecap="round" stroke-linejoin="round"/>
      <path d="M8.52135 8.12672C9.8176 8.12672 10.7739 7.12818 10.6464 5.90173L10.1717 1.42485H6.86383L6.38926 5.90173C6.26176 7.12818 7.2251 8.12672 8.52135 8.12672Z" stroke="#5A5D5A" stroke-linecap="round" stroke-linejoin="round"/>
      <path d="M12.983 8.12672C14.4138 8.12672 15.4622 7.0276 15.3205 5.68052L15.1221 3.83751C14.8671 2.09502 14.1588 1.42485 12.303 1.42485H10.1426L10.6384 6.12287C10.7659 7.22868 11.8143 8.12672 12.983 8.12672Z" stroke="#5A5D5A" stroke-linecap="round" stroke-linejoin="round"/>
      <path d="M4.01553 8.12672C5.18428 8.12672 6.23969 7.22868 6.35303 6.12287L6.50888 4.64178L6.84887 1.42485H4.68846C2.83263 1.42485 2.12431 2.09502 1.86931 3.83751L1.67095 5.68052C1.52929 7.0276 2.5847 8.12672 4.01553 8.12672Z" stroke="#5A5D5A" stroke-linecap="round" stroke-linejoin="round"/>
      <path d="M6.37467 12.818C6.37467 13.3207 6.22591 13.7965 5.96383 14.1987C5.82925 14.4131 5.66633 14.6074 5.47508 14.7616C5.45383 14.7884 5.43259 14.8085 5.40426 14.8286C4.90843 15.2508 4.25676 15.4988 3.54134 15.4988C2.67717 15.4988 1.90507 15.1302 1.39507 14.5538C1.3809 14.5337 1.35969 14.5203 1.34553 14.5002C1.26053 14.4064 1.1826 14.3059 1.11885 14.1987C0.85677 13.7965 0.708008 13.3207 0.708008 12.818C0.708008 11.9736 1.11884 11.2163 1.77051 10.7271C1.89092 10.6332 2.01841 10.5528 2.15299 10.4858C2.56383 10.2646 3.03842 10.1373 3.54134 10.1373C4.24967 10.1373 4.88716 10.3785 5.38299 10.7873C5.46799 10.8477 5.54592 10.9214 5.61675 10.9951C6.08425 11.4777 6.37467 12.1143 6.37467 12.818Z" stroke="#5A5D5A" stroke-miterlimit="10" stroke-linecap="round" stroke-linejoin="round"/>
      <path d="M4.59715 12.8046H2.48633" stroke="#5A5D5A" stroke-miterlimit="10" stroke-linecap="round" stroke-linejoin="round"/>
      <path d="M3.54199 11.8262V13.83" stroke="#5A5D5A" stroke-miterlimit="10" stroke-linecap="round" stroke-linejoin="round"/>
    </g>
  </symbol>

  <symbol id="personallyGreen" width="16" height="16" viewBox="0 0 16 16" fill="none">
    <g>
      <path d="M14.8813 7.60396V10.6131C14.8813 13.6222 13.6134 14.8286 10.4259 14.8286H6.60797C6.19714 14.8286 5.82169 14.8085 5.47461 14.7616" stroke="#47B200" stroke-linecap="round" stroke-linejoin="round"/>
      <path d="M2.15332 10.4858V7.60396" stroke="#47B200" stroke-linecap="round" stroke-linejoin="round"/>
      <path d="M8.52135 8.12672C9.8176 8.12672 10.7739 7.12818 10.6464 5.90173L10.1717 1.42485H6.86383L6.38926 5.90173C6.26176 7.12818 7.2251 8.12672 8.52135 8.12672Z" stroke="#47B200" stroke-linecap="round" stroke-linejoin="round"/>
      <path d="M12.983 8.12672C14.4138 8.12672 15.4622 7.0276 15.3205 5.68052L15.1221 3.83751C14.8671 2.09502 14.1588 1.42485 12.303 1.42485H10.1426L10.6384 6.12287C10.7659 7.22868 11.8143 8.12672 12.983 8.12672Z" stroke="#47B200" stroke-linecap="round" stroke-linejoin="round"/>
      <path d="M4.01553 8.12672C5.18428 8.12672 6.23969 7.22868 6.35303 6.12287L6.50888 4.64178L6.84887 1.42485H4.68846C2.83263 1.42485 2.12431 2.09502 1.86931 3.83751L1.67095 5.68052C1.52929 7.0276 2.5847 8.12672 4.01553 8.12672Z" stroke="#47B200" stroke-linecap="round" stroke-linejoin="round"/>
      <path d="M6.37467 12.818C6.37467 13.3207 6.22591 13.7965 5.96383 14.1987C5.82925 14.4131 5.66633 14.6074 5.47508 14.7616C5.45383 14.7884 5.43259 14.8085 5.40426 14.8286C4.90843 15.2508 4.25676 15.4988 3.54134 15.4988C2.67717 15.4988 1.90507 15.1302 1.39507 14.5538C1.3809 14.5337 1.35969 14.5203 1.34553 14.5002C1.26053 14.4064 1.1826 14.3059 1.11885 14.1987C0.85677 13.7965 0.708008 13.3207 0.708008 12.818C0.708008 11.9736 1.11884 11.2163 1.77051 10.7271C1.89092 10.6332 2.01841 10.5528 2.15299 10.4858C2.56383 10.2646 3.03842 10.1373 3.54134 10.1373C4.24967 10.1373 4.88716 10.3785 5.38299 10.7873C5.46799 10.8477 5.54592 10.9214 5.61675 10.9951C6.08425 11.4777 6.37467 12.1143 6.37467 12.818Z" stroke="#47B200" stroke-miterlimit="10" stroke-linecap="round" stroke-linejoin="round"/>
      <path d="M4.59715 12.8046H2.48633" stroke="#47B200" stroke-miterlimit="10" stroke-linecap="round" stroke-linejoin="round"/>
      <path d="M3.54199 11.8262V13.83" stroke="#47B200" stroke-miterlimit="10" stroke-linecap="round" stroke-linejoin="round"/>
    </g>
  </symbol>

  <symbol id="deliveryGray" width="17" height="16" viewBox="0 0 17 16" fill="none">
    <g>
      <path d="M10.9283 4.64735C11.0882 4.64787 11.2467 4.61855 11.3945 4.56108C11.5423 4.5036 11.6766 4.41912 11.7895 4.31251C11.9024 4.20591 11.9917 4.07929 12.0523 3.93999C12.1129 3.80068 12.1436 3.65145 12.1426 3.50092C12.1443 3.35115 12.1143 3.20254 12.0544 3.0638C11.9944 2.92506 11.9057 2.79896 11.7933 2.69288C11.6809 2.5868 11.5472 2.50287 11.4 2.446C11.2528 2.38912 11.095 2.36044 10.9359 2.36164C10.7764 2.36117 10.6184 2.39027 10.4709 2.44727C10.3234 2.50427 10.1892 2.58806 10.0761 2.69385C9.96301 2.79964 9.87315 2.92536 9.81166 3.06384C9.75018 3.20232 9.71828 3.35084 9.71778 3.50092C9.71728 3.651 9.7482 3.79971 9.80876 3.93855C9.86932 4.07738 9.95835 4.20363 10.0708 4.31009C10.1832 4.41655 10.3167 4.50112 10.4639 4.55899C10.611 4.61686 10.7688 4.64688 10.9283 4.64735V4.64735Z" fill="#5A5D5A"/>
      <path d="M12.7332 6.93298H11.0727C11.0454 6.93298 11.0187 6.92609 10.9952 6.91302C10.9718 6.89995 10.9525 6.88118 10.9395 6.85869L9.73505 4.78119C9.65019 4.62681 9.52789 4.49339 9.37806 4.39175C9.22824 4.29012 9.05509 4.22311 8.87263 4.19616C8.69018 4.16921 8.50354 4.18307 8.32784 4.23662C8.15213 4.29017 7.99229 4.38191 7.86126 4.50441L5.21032 7.01869C4.98761 7.23263 4.8612 7.5192 4.85742 7.81869C4.85742 8.44012 5.33555 8.66154 5.55943 8.78654C6.6409 9.37297 7.40248 9.8019 7.82027 10.0401C7.84248 10.0528 7.86085 10.0707 7.87361 10.092C7.88636 10.1134 7.89309 10.1374 7.89313 10.1619V12.6305C7.89313 12.938 8.14434 13.2019 8.47105 13.2173C8.55308 13.221 8.63506 13.209 8.71202 13.182C8.78899 13.1551 8.85935 13.1137 8.91883 13.0604C8.97832 13.0071 9.02571 12.943 9.05812 12.872C9.09054 12.801 9.1073 12.7245 9.10741 12.6473V9.57583C9.10747 9.48512 9.08458 9.39569 9.04063 9.31496C8.99668 9.23422 8.93295 9.1645 8.85469 9.11154L7.45068 8.16119C7.43305 8.14932 7.41833 8.13404 7.40751 8.11637C7.39668 8.0987 7.39 8.07905 7.38792 8.05875C7.38583 8.03845 7.38839 8.01797 7.39542 7.99867C7.40245 7.97938 7.41379 7.96173 7.42867 7.9469L9.02241 6.34726C9.03876 6.33081 9.059 6.31822 9.08149 6.31053C9.10399 6.30284 9.1281 6.30026 9.15185 6.30301C9.17561 6.30576 9.19833 6.31376 9.21818 6.32636C9.23802 6.33895 9.25442 6.35578 9.26603 6.37548L10.094 7.7819C10.1466 7.87106 10.2237 7.94533 10.3171 7.99702C10.4105 8.0487 10.5169 8.07592 10.6253 8.07583H12.7503C12.8325 8.07592 12.9139 8.06028 12.9896 8.02986C13.0652 7.99944 13.1335 7.95487 13.1902 7.89886C13.247 7.84285 13.2911 7.77657 13.3199 7.70403C13.3486 7.6315 13.3614 7.55423 13.3574 7.4769C13.3415 7.1694 13.0599 6.93298 12.7332 6.93298Z" fill="#5A5D5A"/>
      <rect width="4.12689" height="4.12727" rx="1.5" transform="matrix(0.7282 0.685365 -0.7282 0.685365 4.66504 0.799988)" stroke="#5A5D5A"/>
      <path d="M13.8125 14.8616C15.2795 14.8616 16.4687 13.7423 16.4687 12.3616C16.4687 10.9809 15.2795 9.8616 13.8125 9.8616C12.3455 9.8616 11.1562 10.9809 11.1562 12.3616C11.1562 13.7423 12.3455 14.8616 13.8125 14.8616Z" stroke="#5A5D5A"/>
      <path d="M3.1875 14.8616C4.65451 14.8616 5.84375 13.7423 5.84375 12.3616C5.84375 10.9809 4.65451 9.8616 3.1875 9.8616C1.72049 9.8616 0.53125 10.9809 0.53125 12.3616C0.53125 13.7423 1.72049 14.8616 3.1875 14.8616Z" stroke="#5A5D5A"/>
    </g>
  </symbol>

  <symbol id="deliveryGreen" width="17" height="16" viewBox="0 0 17 16" fill="none">
    <g>
      <path d="M10.9302 4.64735C11.0902 4.64787 11.2486 4.61855 11.3964 4.56108C11.5443 4.5036 11.6785 4.41912 11.7914 4.31251C11.9043 4.20591 11.9937 4.07929 12.0543 3.93999C12.1149 3.80068 12.1456 3.65145 12.1445 3.50092C12.1463 3.35115 12.1163 3.20254 12.0563 3.0638C11.9964 2.92506 11.9076 2.79896 11.7953 2.69288C11.6829 2.5868 11.5492 2.50287 11.402 2.446C11.2547 2.38912 11.097 2.36044 10.9378 2.36164C10.7783 2.36117 10.6204 2.39027 10.4728 2.44727C10.3253 2.50427 10.1912 2.58806 10.0781 2.69385C9.96496 2.79964 9.8751 2.92536 9.81362 3.06384C9.75213 3.20232 9.72023 3.35084 9.71973 3.50092C9.71923 3.651 9.75015 3.79971 9.81071 3.93855C9.87128 4.07738 9.9603 4.20363 10.0727 4.31009C10.1851 4.41655 10.3187 4.50112 10.4658 4.55899C10.613 4.61686 10.7708 4.64688 10.9302 4.64735V4.64735Z" fill="#47B200"/>
      <path d="M12.7332 6.93301H11.0727C11.0454 6.93301 11.0187 6.92612 10.9952 6.91305C10.9718 6.89998 10.9525 6.88121 10.9395 6.85872L9.73505 4.78122C9.65019 4.62684 9.52789 4.49342 9.37806 4.39178C9.22824 4.29015 9.05509 4.22314 8.87263 4.19619C8.69018 4.16924 8.50354 4.1831 8.32784 4.23665C8.15213 4.2902 7.99229 4.38194 7.86126 4.50444L5.21032 7.01872C4.98761 7.23266 4.8612 7.51923 4.85742 7.81872C4.85742 8.44015 5.33555 8.66157 5.55943 8.78657C6.6409 9.373 7.40248 9.80193 7.82027 10.0401C7.84248 10.0529 7.86085 10.0708 7.87361 10.0921C7.88636 10.1134 7.89309 10.1375 7.89313 10.1619V12.6305C7.89313 12.938 8.14434 13.2019 8.47105 13.2173C8.55308 13.221 8.63506 13.209 8.71202 13.1821C8.78899 13.1551 8.85935 13.1137 8.91883 13.0604C8.97832 13.0072 9.02571 12.9431 9.05812 12.8721C9.09054 12.801 9.1073 12.7246 9.10741 12.6473V9.57586C9.10747 9.48515 9.08458 9.39572 9.04063 9.31499C8.99668 9.23426 8.93295 9.16453 8.85469 9.11157L7.45068 8.16122C7.43305 8.14935 7.41833 8.13407 7.40751 8.1164C7.39668 8.09873 7.39 8.07909 7.38792 8.05878C7.38583 8.03848 7.38839 8.018 7.39542 7.9987C7.40245 7.97941 7.41379 7.96176 7.42867 7.94693L9.02241 6.34729C9.03876 6.33084 9.059 6.31825 9.08149 6.31056C9.10399 6.30287 9.1281 6.30029 9.15185 6.30304C9.17561 6.3058 9.19833 6.31379 9.21818 6.32639C9.23802 6.33898 9.25442 6.35581 9.26603 6.37551L10.094 7.78193C10.1466 7.87109 10.2237 7.94536 10.3171 7.99705C10.4105 8.04873 10.5169 8.07595 10.6253 8.07586H12.7503C12.8325 8.07595 12.9139 8.06031 12.9896 8.02989C13.0652 7.99947 13.1335 7.9549 13.1902 7.89889C13.247 7.84288 13.2911 7.7766 13.3199 7.70406C13.3486 7.63153 13.3614 7.55426 13.3574 7.47693C13.3415 7.16943 13.0599 6.93301 12.7332 6.93301Z" fill="#47B200"/>
      <rect width="4.12689" height="4.12727" rx="1.5" transform="matrix(0.7282 0.685365 -0.7282 0.685365 4.66602 0.800003)" stroke="#47B200"/>
      <path d="M13.8125 14.8616C15.2795 14.8616 16.4687 13.7423 16.4687 12.3616C16.4687 10.9809 15.2795 9.8616 13.8125 9.8616C12.3455 9.8616 11.1562 10.9809 11.1562 12.3616C11.1562 13.7423 12.3455 14.8616 13.8125 14.8616Z" stroke="#47B200"/>
      <path d="M3.18848 14.8616C4.65548 14.8616 5.84473 13.7423 5.84473 12.3616C5.84473 10.9809 4.65548 9.8616 3.18848 9.8616C1.72147 9.8616 0.532227 10.9809 0.532227 12.3616C0.532227 13.7423 1.72147 14.8616 3.18848 14.8616Z" stroke="#47B200"/>
    </g>
  </symbol>

  <symbol id="airplane" viewBox="0 0 13 14" fill="none">
    <g>
      <path fill-rule="evenodd" clip-rule="evenodd" d="M12.3424 0.635576C12.4916 0.775701 12.5403 0.99259 12.4653 1.18305L7.74477 13.183C7.65683 13.4066 7.42234 13.536 7.18633 13.4913C6.95031 13.4465 6.77948 13.2402 6.77948 13V6.64274H1.00005C0.765699 6.64274 0.562792 6.47997 0.511956 6.2512C0.461119 6.02243 0.575995 5.78904 0.788289 5.68979L11.7883 0.547068C11.9737 0.460388 12.1932 0.495452 12.3424 0.635576ZM3.2501 5.64274H7.27948C7.55562 5.64274 7.77948 5.86659 7.77948 6.14274V10.3631L11.0756 1.98415L3.2501 5.64274Z" fill="#47B200"/>
    </g>
  </symbol>

  <symbol id="close" viewBox="0 0 16 16"  fill="none">
    <g>
      <path fill-rule="evenodd" clip-rule="evenodd" d="M0.644174 0.648948C0.838051 0.45231 1.15463 0.450071 1.35126 0.643948L8.12101 7.31861L14.8908 0.643948C15.0874 0.450071 15.404 0.45231 15.5978 0.648948C15.7917 0.845586 15.7895 1.16216 15.5928 1.35604L8.83317 8.02077L15.5931 14.6857C15.7897 14.8796 15.7919 15.1962 15.5981 15.3928C15.4042 15.5894 15.0876 15.5917 14.891 15.3978L8.12101 8.72293L1.35104 15.3978C1.15441 15.5917 0.837832 15.5894 0.643955 15.3928C0.450079 15.1962 0.452318 14.8796 0.648956 14.6857L7.40885 8.02077L0.649175 1.35604C0.452537 1.16216 0.450298 0.845586 0.644174 0.648948Z" fill="#47B200"/>
    </g>
  </symbol>
</svg>