<svg xmlns="http://www.w3.org/2000/svg">
  <symbol id="barCode" viewBox="0 0 22 15">
    <g>
      <path fill-rule="evenodd" clip-rule="evenodd" d="M2.34148 0H0.550049V14.9286H2.34148V0ZM2.93867 0H4.7301V14.9286H2.93867V0ZM7.71578 0H5.3272V14.9286H7.71578V0ZM13.8738 0H9.69384V14.9286H13.8738V0ZM14.8815 0H16.6729V14.9286H14.8815V0ZM21.45 0H18.4643V14.9286H21.45V0Z"/>
    </g>
  </symbol>

  <symbol id="basket" viewBox="0 0 18 18">
    <g>
      <path d="M6.69567 1.01975C6.89066 0.824221 6.89022 0.507639 6.69469 0.312646C6.49916 0.117654 6.18258 0.11809 5.98759 0.313622L6.69567 1.01975ZM2.97092 3.33862C2.77593 3.53415 2.77636 3.85074 2.97189 4.04573C3.16743 4.24072 3.48401 4.24028 3.679 4.04475L2.97092 3.33862ZM12.0123 0.313622C11.8173 0.11809 11.5008 0.117654 11.3052 0.312646C11.1097 0.507639 11.1093 0.824221 11.3043 1.01975L12.0123 0.313622ZM14.3209 4.04475C14.5159 4.24028 14.8325 4.24072 15.028 4.04573C15.2236 3.85074 15.224 3.53415 15.029 3.33862L14.3209 4.04475ZM7.63329 10.6667C7.63329 10.3905 7.40944 10.1667 7.13329 10.1667C6.85715 10.1667 6.63329 10.3905 6.63329 10.6667H7.63329ZM6.63329 13.625C6.63329 13.9012 6.85715 14.125 7.13329 14.125C7.40944 14.125 7.63329 13.9012 7.63329 13.625H6.63329ZM11.4666 10.6667C11.4666 10.3905 11.2428 10.1667 10.9666 10.1667C10.6905 10.1667 10.4666 10.3905 10.4666 10.6667H11.4666ZM10.4666 13.625C10.4666 13.9012 10.6905 14.125 10.9666 14.125C11.2428 14.125 11.4666 13.9012 11.4666 13.625H10.4666ZM2.4101 7.25282C2.36562 6.98028 2.10863 6.7954 1.83609 6.83988C1.56356 6.88436 1.37868 7.14135 1.42315 7.41389L2.4101 7.25282ZM3.09163 14.5334L2.59815 14.6139L2.59829 14.6147L3.09163 14.5334ZM14.6833 14.6334L14.1922 14.5392L14.1922 14.5393L14.6833 14.6334ZM16.5743 7.42753C16.6264 7.15633 16.4487 6.89431 16.1775 6.8423C15.9063 6.79029 15.6443 6.96798 15.5922 7.23918L16.5743 7.42753ZM5.98759 0.313622L2.97092 3.33862L3.679 4.04475L6.69567 1.01975L5.98759 0.313622ZM11.3043 1.01975L14.3209 4.04475L15.029 3.33862L12.0123 0.313622L11.3043 1.01975ZM1.16663 5.54169C1.16663 4.85292 1.34776 4.63791 1.4855 4.54566C1.67703 4.41737 1.98877 4.37502 2.51663 4.37502V3.37502C2.01948 3.37502 1.40622 3.39517 0.929005 3.7148C0.397993 4.07046 0.166626 4.68878 0.166626 5.54169H1.16663ZM2.51663 4.37502H15.4833V3.37502H2.51663V4.37502ZM15.4833 4.37502C16.0111 4.37502 16.3229 4.41737 16.5144 4.54566C16.6522 4.63791 16.8333 4.85292 16.8333 5.54169H17.8333C17.8333 4.68878 17.6019 4.07046 17.0709 3.7148C16.5937 3.39517 15.9804 3.37502 15.4833 3.37502V4.37502ZM16.8333 5.54169C16.8333 6.39198 16.6341 6.56116 16.543 6.61369C16.4706 6.6554 16.3585 6.68725 16.1681 6.70124C15.971 6.71572 15.7631 6.70835 15.4833 6.70835V7.70835C15.716 7.70835 15.9955 7.71661 16.2414 7.69855C16.4941 7.67998 16.7803 7.6311 17.0423 7.4801C17.6199 7.14721 17.8333 6.48306 17.8333 5.54169H16.8333ZM15.4833 6.70835H2.51663V7.70835H15.4833V6.70835ZM2.51663 6.70835C2.23681 6.70835 2.02888 6.71572 1.83179 6.70124C1.64146 6.68725 1.52929 6.6554 1.45692 6.61369C1.36577 6.56116 1.16663 6.39198 1.16663 5.54169H0.166626C0.166626 6.48306 0.379978 7.14721 0.957584 7.4801C1.21959 7.6311 1.50586 7.67998 1.7585 7.69855C2.00437 7.71661 2.28394 7.70835 2.51663 7.70835V6.70835ZM6.63329 10.6667V13.625H7.63329V10.6667H6.63329ZM10.4666 10.6667V13.625H11.4666V10.6667H10.4666ZM1.42315 7.41389L2.59815 14.6139L3.5851 14.4528L2.4101 7.25282L1.42315 7.41389ZM2.59829 14.6147C2.73651 15.4527 2.98504 16.2804 3.58793 16.8909C4.20492 17.5158 5.11041 17.8334 6.38329 17.8334V16.8334C5.27284 16.8334 4.66583 16.5593 4.29949 16.1883C3.91905 15.803 3.71341 15.2307 3.58496 14.452L2.59829 14.6147ZM6.38329 17.8334H11.4083V16.8334H6.38329V17.8334ZM11.4083 17.8334C12.7668 17.8334 13.6741 17.5372 14.2669 16.9161C14.8383 16.3174 15.0265 15.4998 15.1744 14.7274L14.1922 14.5393C14.0401 15.3335 13.8867 15.866 13.5435 16.2257C13.2216 16.5629 12.6414 16.8334 11.4083 16.8334V17.8334ZM15.1743 14.7275L16.5743 7.42753L15.5922 7.23918L14.1922 14.5392L15.1743 14.7275Z"/>
    </g>
  </symbol>

  <symbol id="plus" viewBox="0 0 6 6">
    <g>
      <path d="M2.124 5.4V0H3.408V5.4H2.124ZM0 3.3V2.1H5.532V3.3H0Z"/>
    </g>
  </symbol>

  <symbol id="minus" viewBox="0 0 4 2">
    <g>
      <path d="M0 1.456V0H3.85V1.456H0Z"/>
    </g>
  </symbol>

  <symbol id="main" viewBox="0 0 17 17">
    <g>
      <path fill-rule="evenodd" clip-rule="evenodd" d="M8.5 0C13.194 0 17 3.79896 17 8.48433C17 13.1697 13.194 16.9687 8.5 16.9687C3.80598 16.9687 0 13.1697 0 8.48433C0 3.79896 3.76366 0 8.5 0Z"/>
      <path fill-rule="evenodd" clip-rule="evenodd" d="M15.4546 10.2643C14.6913 13.3434 11.8501 15.6634 8.50002 15.6634C5.14995 15.6634 2.30875 13.3856 1.54547 10.2643C6.33733 10.2643 10.6203 10.2643 15.4546 10.2643Z" fill="#B61426"/>
      <path fill-rule="evenodd" clip-rule="evenodd" d="M8.48286 1.30522C12.4175 1.30522 15.6328 4.53366 15.6328 8.48427H13.2636C13.2636 5.80803 11.1059 3.64161 8.44054 3.64161C5.77516 3.64161 3.61747 5.80803 3.61747 8.48427H1.24823C1.33287 4.53366 4.50593 1.30522 8.48286 1.30522Z" fill="#B61426"/>
    </g>
  </symbol>

  <symbol id="catalog" viewBox="0 0 16 16">
    <g>
      <path fill-rule="evenodd" clip-rule="evenodd" d="M1.47982 1.47982C1.93999 1.01965 2.58964 0.833374 3.33337 0.833374H4.66671C5.41045 0.833374 6.06009 1.01965 6.52026 1.47982C6.98043 1.93999 7.16671 2.58964 7.16671 3.33337V4.66671C7.16671 5.41045 6.98043 6.06009 6.52026 6.52026C6.06009 6.98043 5.41045 7.16671 4.66671 7.16671H3.33337C2.58964 7.16671 1.93999 6.98043 1.47982 6.52026C1.01965 6.06009 0.833374 5.41045 0.833374 4.66671V3.33337C0.833374 2.58964 1.01965 1.93999 1.47982 1.47982ZM2.18693 2.18693C1.98043 2.39342 1.83337 2.74378 1.83337 3.33337V4.66671C1.83337 5.2563 1.98043 5.60666 2.18693 5.81315C2.39342 6.01965 2.74378 6.16671 3.33337 6.16671H4.66671C5.2563 6.16671 5.60666 6.01965 5.81315 5.81315C6.01965 5.60666 6.16671 5.2563 6.16671 4.66671V3.33337C6.16671 2.74378 6.01965 2.39342 5.81315 2.18693C5.60666 1.98043 5.2563 1.83337 4.66671 1.83337H3.33337C2.74378 1.83337 2.39342 1.98043 2.18693 2.18693ZM9.47982 1.47982C9.93999 1.01965 10.5896 0.833374 11.3334 0.833374H12.6667C13.4104 0.833374 14.0601 1.01965 14.5203 1.47982C14.9804 1.93999 15.1667 2.58963 15.1667 3.33337V4.66671C15.1667 5.41045 14.9804 6.06009 14.5203 6.52026C14.0601 6.98043 13.4104 7.16671 12.6667 7.16671H11.3334C10.5896 7.16671 9.93999 6.98043 9.47982 6.52026C9.01965 6.06009 8.83337 5.41045 8.83337 4.66671V3.33337C8.83337 2.58963 9.01965 1.93999 9.47982 1.47982ZM10.1869 2.18693C9.98043 2.39342 9.83337 2.74378 9.83337 3.33337V4.66671C9.83337 5.2563 9.98043 5.60666 10.1869 5.81315C10.3934 6.01965 10.7438 6.16671 11.3334 6.16671H12.6667C13.2563 6.16671 13.6067 6.01965 13.8132 5.81315C14.0196 5.60666 14.1667 5.2563 14.1667 4.66671V3.33337C14.1667 2.74378 14.0196 2.39342 13.8132 2.18693C13.6067 1.98043 13.2563 1.83337 12.6667 1.83337H11.3334C10.7438 1.83337 10.3934 1.98043 10.1869 2.18693ZM1.47982 9.47982C1.93999 9.01965 2.58963 8.83337 3.33337 8.83337H4.66671C5.41045 8.83337 6.06009 9.01965 6.52026 9.47982C6.98043 9.93999 7.16671 10.5896 7.16671 11.3334V12.6667C7.16671 13.4104 6.98043 14.0601 6.52026 14.5203C6.06009 14.9804 5.41045 15.1667 4.66671 15.1667H3.33337C2.58963 15.1667 1.93999 14.9804 1.47982 14.5203C1.01965 14.0601 0.833374 13.4104 0.833374 12.6667V11.3334C0.833374 10.5896 1.01965 9.93999 1.47982 9.47982ZM2.18693 10.1869C1.98043 10.3934 1.83337 10.7438 1.83337 11.3334V12.6667C1.83337 13.2563 1.98043 13.6067 2.18693 13.8132C2.39342 14.0196 2.74378 14.1667 3.33337 14.1667H4.66671C5.2563 14.1667 5.60666 14.0196 5.81315 13.8132C6.01965 13.6067 6.16671 13.2563 6.16671 12.6667V11.3334C6.16671 10.7438 6.01965 10.3934 5.81315 10.1869C5.60666 9.98043 5.2563 9.83337 4.66671 9.83337H3.33337C2.74378 9.83337 2.39342 9.98043 2.18693 10.1869ZM9.47982 9.47982C9.93999 9.01965 10.5896 8.83337 11.3334 8.83337H12.6667C13.4104 8.83337 14.0601 9.01965 14.5203 9.47982C14.9804 9.93999 15.1667 10.5896 15.1667 11.3334V12.6667C15.1667 13.4104 14.9804 14.0601 14.5203 14.5203C14.0601 14.9804 13.4104 15.1667 12.6667 15.1667H11.3334C10.5896 15.1667 9.93999 14.9804 9.47982 14.5203C9.01965 14.0601 8.83337 13.4104 8.83337 12.6667V11.3334C8.83337 10.5896 9.01965 9.93999 9.47982 9.47982ZM10.1869 10.1869C9.98043 10.3934 9.83337 10.7438 9.83337 11.3334V12.6667C9.83337 13.2563 9.98043 13.6067 10.1869 13.8132C10.3934 14.0196 10.7438 14.1667 11.3334 14.1667H12.6667C13.2563 14.1667 13.6067 14.0196 13.8132 13.8132C14.0196 13.6067 14.1667 13.2563 14.1667 12.6667V11.3334C14.1667 10.7438 14.0196 10.3934 13.8132 10.1869C13.6067 9.98043 13.2563 9.83337 12.6667 9.83337H11.3334C10.7438 9.83337 10.3934 9.98043 10.1869 10.1869Z"/>
    </g>
  </symbol>

  <symbol id="bag" viewBox="0 0 14 16">
    <g>
      <path fill-rule="evenodd" clip-rule="evenodd" d="M9.4999 4.34007C9.4999 2.87784 8.24358 1.70664 6.75485 1.85107L6.75303 1.85124C5.53873 1.96458 4.4999 3.19504 4.4999 4.46674V5.11341C4.4999 5.38955 4.27604 5.61341 3.9999 5.61341C3.72376 5.61341 3.4999 5.38955 3.4999 5.11341V4.46674C3.4999 2.73874 4.87394 1.02282 6.65919 0.855656C8.7434 0.653984 10.4999 2.29594 10.4999 4.34007V5.26007C10.4999 5.53622 10.276 5.76007 9.9999 5.76007C9.72376 5.76007 9.4999 5.53622 9.4999 5.26007V4.34007Z"/>
      <path fill-rule="evenodd" clip-rule="evenodd" d="M1.24893 5.87823C1.8392 5.17646 2.85121 4.83341 4.33323 4.83341H9.66657C11.1486 4.83341 12.1606 5.17646 12.7509 5.87823C13.3364 6.57434 13.3912 7.48922 13.2969 8.34173L13.2961 8.34877L12.7966 12.3445C12.7229 13.0286 12.5503 13.778 11.9396 14.3359C11.3322 14.8908 10.3911 15.1667 8.9999 15.1667H4.9999C3.60867 15.1667 2.66759 14.8908 2.06016 14.3359C1.44953 13.778 1.27693 13.0286 1.20322 12.3445L0.702884 8.34174C0.608549 7.48922 0.663412 6.57434 1.24893 5.87823ZM1.69649 8.2283L2.19713 12.2335C2.2637 12.8547 2.4016 13.2933 2.73464 13.5976C3.07221 13.906 3.71113 14.1667 4.9999 14.1667H8.9999C10.2887 14.1667 10.9276 13.906 11.2652 13.5976C11.5982 13.2933 11.7362 12.8548 11.8027 12.2335L11.8037 12.2247L12.3033 8.22831C12.3883 7.45593 12.2996 6.89526 11.9856 6.52192C11.6759 6.15369 11.0312 5.83341 9.66657 5.83341H4.33323C2.96859 5.83341 2.32393 6.15369 2.01421 6.52192C1.70019 6.89525 1.61147 7.45593 1.69649 8.2283Z"/>
      <path fill-rule="evenodd" clip-rule="evenodd" d="M8.33022 8.00007C8.33022 7.44779 8.77794 7.00007 9.33022 7.00007H9.33621C9.8885 7.00007 10.3362 7.44779 10.3362 8.00007C10.3362 8.55236 9.8885 9.00007 9.33621 9.00007H9.33022C8.77794 9.00007 8.33022 8.55236 8.33022 8.00007Z"/>
      <path fill-rule="evenodd" clip-rule="evenodd" d="M3.66291 8.00007C3.66291 7.44779 4.11062 7.00007 4.66291 7.00007H4.66889C5.22118 7.00007 5.66889 7.44779 5.66889 8.00007C5.66889 8.55236 5.22118 9.00007 4.66889 9.00007H4.66291C4.11062 9.00007 3.66291 8.55236 3.66291 8.00007Z"/>
    </g>
  </symbol>

  <symbol id="shop" viewBox="0 0 14 16">
    <g>
      <path fill-rule="evenodd" clip-rule="evenodd" d="M1.16236 1.51609C1.71283 1.00762 2.46874 0.833374 3.39329 0.833374H5.42662C5.42995 0.833374 5.43327 0.833407 5.43659 0.833473C5.43993 0.833407 5.44327 0.833374 5.44662 0.833374H10.5666C11.4912 0.833374 12.2471 1.00762 12.7976 1.51609C13.3414 2.01846 13.5902 2.76143 13.7152 3.6648C13.7161 3.67076 13.7168 3.67674 13.7174 3.68273L13.9042 5.5172C13.9716 6.19452 13.8018 6.82306 13.4627 7.32679C13.4782 7.37508 13.4866 7.42658 13.4866 7.48004V10.4734C13.4866 12.0196 13.1797 13.2324 12.366 14.0461C11.5523 14.8598 10.3395 15.1667 8.79329 15.1667H5.19996C3.65371 15.1667 2.44094 14.8598 1.62724 14.0461C0.81354 13.2324 0.506624 12.0196 0.506624 10.4734V7.48004C0.506624 7.43658 0.51217 7.39441 0.522591 7.35421C0.171143 6.84604 -0.00615402 6.20707 0.0623825 5.51752C0.0623932 5.51742 0.0623718 5.51763 0.0623825 5.51752L0.24235 3.68452C0.242997 3.67793 0.243775 3.67135 0.244683 3.6648C0.369765 2.76143 0.618483 2.01846 1.16236 1.51609ZM1.50662 8.20896V10.4734C1.50662 11.9205 1.79971 12.8044 2.33434 13.339C2.82225 13.8269 3.60104 14.1136 4.83329 14.16V13C4.83329 12.3671 4.99085 11.8004 5.39557 11.3957C5.80029 10.9909 6.36698 10.8334 6.99996 10.8334C7.63294 10.8334 8.19963 10.9909 8.60434 11.3957C9.00906 11.8004 9.16663 12.3671 9.16663 13V14.1598C10.395 14.1126 11.1719 13.826 11.6589 13.339C12.1935 12.8044 12.4866 11.9205 12.4866 10.4734V8.19537C12.1094 8.39024 11.6754 8.50004 11.2066 8.50004C10.3638 8.50004 9.57816 8.08023 9.07061 7.43718C8.62476 8.0822 7.87705 8.50004 6.99996 8.50004C6.11209 8.50004 5.3568 8.07186 4.91301 7.41329C4.40753 8.07015 3.61246 8.50004 2.75996 8.50004C2.30221 8.50004 1.87757 8.39534 1.50662 8.20896ZM4.87421 1.83337H3.39329C2.57118 1.83337 2.12042 1.99246 1.84089 2.25066C1.55588 2.51392 1.35175 2.96843 1.23658 3.79227L1.05756 5.61556C0.953411 6.66231 1.71001 7.50004 2.75996 7.50004C3.60437 7.50004 4.38065 6.80035 4.46229 5.95845L4.46243 5.95703L4.87421 1.83337ZM5.49751 5.83611C5.40659 6.76297 6.07674 7.50004 6.99996 7.50004C7.83252 7.50004 8.45927 6.90061 8.50765 6.10314C8.50583 6.08811 8.50415 6.07305 8.50259 6.05795L8.50243 6.05639L8.08073 1.83337H5.89898L5.49751 5.83611C5.4975 5.83627 5.49753 5.83596 5.49751 5.83611ZM9.11179 1.83337L9.49754 5.73755C9.50797 5.84361 9.51214 5.94859 9.51031 6.05173C9.64401 6.8529 10.3951 7.50004 11.2066 7.50004C12.2565 7.50004 13.0131 6.66312 12.9091 5.61652C12.9091 5.61642 12.9091 5.61663 12.9091 5.61652L12.7235 3.79315C12.6083 2.96875 12.4041 2.51402 12.119 2.25066C11.8395 1.99246 11.3887 1.83337 10.5666 1.83337H9.11179ZM8.16663 14.1667V13C8.16663 12.5197 8.04752 12.253 7.89724 12.1028C7.74696 11.9525 7.48031 11.8334 6.99996 11.8334C6.5196 11.8334 6.25296 11.9525 6.10268 12.1028C5.9524 12.253 5.83329 12.5197 5.83329 13V14.1667H8.16663Z"/>
    </g>
  </symbol>

  <symbol id="profile" viewBox="0 0 16 16">
    <g>
      <path fill-rule="evenodd" clip-rule="evenodd" d="M8.00004 1.83337C4.59428 1.83337 1.83337 4.59428 1.83337 8.00004C1.83337 9.51577 2.38022 10.9038 3.28739 11.9775C3.52893 11.5247 3.91269 11.1182 4.40757 10.7852L4.41005 10.7835L4.41006 10.7835C5.42243 10.1111 6.72764 9.79004 8.00504 9.79004C9.28228 9.79004 10.585 10.111 11.5914 10.7845L11.5925 10.7852C12.0874 11.1182 12.4711 11.5247 12.7127 11.9775C13.6199 10.9038 14.1667 9.51577 14.1667 8.00004C14.1667 4.59428 11.4058 1.83337 8.00004 1.83337ZM9.07538 15.0866C12.5233 14.5678 15.1667 11.5926 15.1667 8.00004C15.1667 4.042 11.9581 0.833374 8.00004 0.833374C4.042 0.833374 0.833374 4.042 0.833374 8.00004C0.833374 11.9581 4.042 15.1667 8.00004 15.1667C8.36568 15.1667 8.72475 15.1394 9.07538 15.0866ZM11.9478 12.7334C11.8359 12.3571 11.5487 11.9612 11.0348 11.6152C10.228 11.0756 9.13089 10.79 8.00504 10.79C6.87968 10.79 5.77875 11.0754 4.96458 11.6157C4.45113 11.9615 4.16413 12.3573 4.05229 12.7334C4.70723 13.2818 5.47514 13.6956 6.317 13.9342C6.85199 14.0857 7.41655 14.1667 8.00004 14.1667C8.58353 14.1667 9.14809 14.0857 9.68308 13.9342C10.5249 13.6956 11.2928 13.2818 11.9478 12.7334ZM8.00004 4.65337C7.06384 4.65337 6.31337 5.40852 6.31337 6.34004C6.31337 7.23923 7.01579 7.97238 7.9058 8.01898C7.96712 8.01397 8.0325 8.01352 8.096 8.01889C8.98221 7.97153 9.68091 7.2412 9.68671 6.33858C9.68592 5.40873 8.93008 4.65337 8.00004 4.65337ZM5.31337 6.34004C5.31337 4.85823 6.50957 3.65337 8.00004 3.65337C9.48285 3.65337 10.6867 4.85723 10.6867 6.34004V6.34287H10.6867C10.6785 7.78844 9.5415 8.97051 8.09708 9.01975C8.06775 9.02075 8.03838 9.01917 8.00933 9.01501C8.0122 9.01542 8.01276 9.01539 8.01092 9.01527C8.0092 9.01516 8.00633 9.01504 8.00254 9.01504C7.99435 9.01504 7.98678 9.01559 7.98206 9.01618C7.95584 9.01946 7.92941 9.02065 7.90301 9.01975C6.46111 8.97059 5.31337 7.79035 5.31337 6.34004Z"/>
    </g>
  </symbol>

  <symbol id="arrowLeft" viewBox="0 0 20 14">
    <g>
      <path fill-rule="evenodd" clip-rule="evenodd" d="M8.10033 0.399663C8.39322 0.692556 8.39322 1.16743 8.10033 1.46032L3.31066 6.24999H18.5C18.9142 6.24999 19.25 6.58578 19.25 6.99999C19.25 7.41421 18.9142 7.74999 18.5 7.74999H3.31066L8.10033 12.5397C8.39322 12.8326 8.39322 13.3074 8.10033 13.6003C7.80744 13.8932 7.33256 13.8932 7.03967 13.6003L0.96967 7.53032C0.829018 7.38967 0.75 7.19891 0.75 6.99999C0.75 6.80108 0.829018 6.61031 0.96967 6.46966L7.03967 0.399663C7.33256 0.106769 7.80744 0.106769 8.10033 0.399663Z" fill="#3B3230"/>
    </g>
  </symbol>
</svg>